<svg viewBox="0 0 320 240" xmlns="http://www.w3.org/2000/svg" role="img" aria-label="격리 — 컵"><defs><filter id="isolate-cup-blur" x="-50%" y="-50%" width="200%" height="200%"><feGaussianBlur stdDeviation="5"/></filter><filter id="isolate-cup-soft" x="-50%" y="-50%" width="200%" height="200%"><feGaussianBlur stdDeviation="2"/></filter><linearGradient id="isolate-cup-g1" x1="0" y1="0" x2="1" y2="0"><stop offset="0" stop-color="#2d3641"/><stop offset="0.22" stop-color="#37424f"/><stop offset="0.5" stop-color="#2f3844"/><stop offset="0.82" stop-color="#242c36"/><stop offset="1" stop-color="#1f262f"/></linearGradient><radialGradient id="isolate-cup-r2" cx="0.45" cy="0.4" r="0.7"><stop offset="0" stop-color="#3b4654"/><stop offset="0.75" stop-color="#2c3541"/><stop offset="1" stop-color="#252d38"/></radialGradient><linearGradient id="isolate-cup-g3" x1="0" y1="0" x2="1" y2="0"><stop offset="0" stop-color="#dcdad6"/><stop offset="0.22" stop-color="#f6f5f4"/><stop offset="0.5" stop-color="#e1dfdc"/><stop offset="0.82" stop-color="#c7c3be"/><stop offset="1" stop-color="#b9b5ad"/></linearGradient><linearGradient id="isolate-cup-g4" x1="0" y1="0" x2="0" y2="1"><stop offset="0" stop-color="#c4c1bb"/><stop offset="0.55" stop-color="#e1dfdc"/><stop offset="1" stop-color="#f3f3f1"/></linearGradient><clipPath id="isolate-cup-hz5"><polygon points="60.2,163.2 168.3,225.6 168.3,188.8 60.2,126.4"/></clipPath><clipPath id="isolate-cup-hb6"><polygon points="60.2,152.0 168.3,214.4 168.3,201.6 60.2,139.2"/></clipPath><clipPath id="isolate-cup-hz7"><polygon points="259.8,172.8 168.3,225.6 168.3,188.8 259.8,136.0"/></clipPath><clipPath id="isolate-cup-hb8"><polygon points="259.8,161.6 168.3,214.4 168.3,201.6 259.8,148.8"/></clipPath><linearGradient id="isolate-cup-g9" x1="0" y1="0" x2="1" y2="0"><stop offset="0" stop-color="#bfc4cb"/><stop offset="0.22" stop-color="#e4e7ec"/><stop offset="0.5" stop-color="#c6cad1"/><stop offset="0.82" stop-color="#a1a7b0"/><stop offset="1" stop-color="#8d949e"/></linearGradient><linearGradient id="isolate-cup-g10" x1="0" y1="0" x2="1" y2="0"><stop offset="0" stop-color="#20262f"/><stop offset="0.22" stop-color="#272f39"/><stop offset="0.5" stop-color="#212731"/><stop offset="0.82" stop-color="#191e26"/><stop offset="1" stop-color="#151920"/></linearGradient><linearGradient id="isolate-cup-g11" x1="0" y1="0" x2="1" y2="0"><stop offset="0" stop-color="#d8dadd"/><stop offset="0.22" stop-color="#f5f5f6"/><stop offset="0.5" stop-color="#dddfe2"/><stop offset="0.82" stop-color="#c0c4c9"/><stop offset="1" stop-color="#b0b5bc"/></linearGradient></defs><ellipse cx="160.0" cy="177.6" rx="99.9" ry="57.7" fill="#000" fill-opacity="0.35" filter="url(#isolate-cup-blur)"/><path d="M62.0 176.0 A98.0 56.6 0 0 0 258.0 176.0 L258.0 168.0 A98.0 56.6 0 0 1 62.0 168.0 Z" fill="url(#isolate-cup-g1)"/><ellipse cx="160.0" cy="168.0" rx="98.0" ry="56.6" fill="url(#isolate-cup-r2)" stroke="#4a5666" stroke-width="1"/><ellipse cx="160.0" cy="168.0" rx="84.3" ry="48.6" fill="#000" fill-opacity="0.4" filter="url(#isolate-cup-blur)"/><polygon points="151.7,110.4 259.8,172.8 259.8,136.0 151.7,73.6" fill="#af892f"/><polygon points="151.7,110.4 60.2,163.2 60.2,126.4 151.7,73.6" fill="#c49c39"/><polygon points="151.7,110.4 259.8,172.8 168.3,225.6 60.2,163.2" fill="#967324"/><ellipse cx="160.0" cy="167.2" rx="36.3" ry="20.9" fill="#000" fill-opacity="0.45" filter="url(#isolate-cup-blur)"/><path d="M129.6 166.4 A30.4 17.5 0 0 0 190.4 166.4 L198.2 97.6 A38.2 22.1 0 0 1 121.8 97.6 Z" fill="url(#isolate-cup-g3)" stroke="#aba69d" stroke-width="1" stroke-opacity=".6"/><ellipse cx="160.0" cy="97.6" rx="38.2" ry="22.1" fill="#fefefe" stroke="#bfbbb4" stroke-width="1" stroke-opacity=".5"/><ellipse cx="160.0" cy="97.6" rx="34.8" ry="20.1" fill="url(#isolate-cup-g4)"/><path d="M125.2 97.6 A34.8 20.1 0 0 1 194.8 97.6" fill="none" stroke="#b9b5ad" stroke-width="2.5" stroke-opacity=".45"/><path d="M136.3 114.1 Q133.3 136.0 138.3 168.4" stroke="#fff" stroke-opacity=".55" stroke-width="3" fill="none" stroke-linecap="round"/><polygon points="60.2,163.2 168.3,225.6 168.3,188.8 60.2,126.4" fill="#d4ab41"/><g clip-path="url(#isolate-cup-hb6)"><polygon points="60.2,152.0 168.3,214.4 168.3,201.6 60.2,139.2" fill="#f9d063"/><path d="M4.2 103.2 l-30 90 h7 l30 -90 z" fill="#161616"/><path d="M18.2 103.2 l-30 90 h7 l30 -90 z" fill="#161616"/><path d="M32.2 103.2 l-30 90 h7 l30 -90 z" fill="#161616"/><path d="M46.2 103.2 l-30 90 h7 l30 -90 z" fill="#161616"/><path d="M60.2 103.2 l-30 90 h7 l30 -90 z" fill="#161616"/><path d="M74.2 103.2 l-30 90 h7 l30 -90 z" fill="#161616"/><path d="M88.2 103.2 l-30 90 h7 l30 -90 z" fill="#161616"/><path d="M102.2 103.2 l-30 90 h7 l30 -90 z" fill="#161616"/><path d="M116.2 103.2 l-30 90 h7 l30 -90 z" fill="#161616"/><path d="M130.2 103.2 l-30 90 h7 l30 -90 z" fill="#161616"/><path d="M144.2 103.2 l-30 90 h7 l30 -90 z" fill="#161616"/><path d="M158.2 103.2 l-30 90 h7 l30 -90 z" fill="#161616"/><path d="M172.2 103.2 l-30 90 h7 l30 -90 z" fill="#161616"/><path d="M186.2 103.2 l-30 90 h7 l30 -90 z" fill="#161616"/><path d="M200.2 103.2 l-30 90 h7 l30 -90 z" fill="#161616"/><path d="M214.2 103.2 l-30 90 h7 l30 -90 z" fill="#161616"/><path d="M228.2 103.2 l-30 90 h7 l30 -90 z" fill="#161616"/><path d="M242.2 103.2 l-30 90 h7 l30 -90 z" fill="#161616"/><path d="M256.2 103.2 l-30 90 h7 l30 -90 z" fill="#161616"/><path d="M270.2 103.2 l-30 90 h7 l30 -90 z" fill="#161616"/><path d="M284.2 103.2 l-30 90 h7 l30 -90 z" fill="#161616"/><path d="M298.2 103.2 l-30 90 h7 l30 -90 z" fill="#161616"/><path d="M312.2 103.2 l-30 90 h7 l30 -90 z" fill="#161616"/><path d="M326.2 103.2 l-30 90 h7 l30 -90 z" fill="#161616"/><path d="M340.2 103.2 l-30 90 h7 l30 -90 z" fill="#161616"/><path d="M354.2 103.2 l-30 90 h7 l30 -90 z" fill="#161616"/><path d="M368.2 103.2 l-30 90 h7 l30 -90 z" fill="#161616"/><path d="M382.2 103.2 l-30 90 h7 l30 -90 z" fill="#161616"/></g><polygon points="259.8,172.8 168.3,225.6 168.3,188.8 259.8,136.0" fill="#af892f"/><g clip-path="url(#isolate-cup-hb8)"><polygon points="259.8,161.6 168.3,214.4 168.3,201.6 259.8,148.8" fill="#f9d063"/><path d="M203.8 112.8 l-30 90 h7 l30 -90 z" fill="#161616"/><path d="M217.8 112.8 l-30 90 h7 l30 -90 z" fill="#161616"/><path d="M231.8 112.8 l-30 90 h7 l30 -90 z" fill="#161616"/><path d="M245.8 112.8 l-30 90 h7 l30 -90 z" fill="#161616"/><path d="M259.8 112.8 l-30 90 h7 l30 -90 z" fill="#161616"/><path d="M273.8 112.8 l-30 90 h7 l30 -90 z" fill="#161616"/><path d="M287.8 112.8 l-30 90 h7 l30 -90 z" fill="#161616"/><path d="M301.8 112.8 l-30 90 h7 l30 -90 z" fill="#161616"/><path d="M315.8 112.8 l-30 90 h7 l30 -90 z" fill="#161616"/><path d="M329.8 112.8 l-30 90 h7 l30 -90 z" fill="#161616"/><path d="M343.8 112.8 l-30 90 h7 l30 -90 z" fill="#161616"/><path d="M357.8 112.8 l-30 90 h7 l30 -90 z" fill="#161616"/><path d="M371.8 112.8 l-30 90 h7 l30 -90 z" fill="#161616"/><path d="M385.8 112.8 l-30 90 h7 l30 -90 z" fill="#161616"/><path d="M399.8 112.8 l-30 90 h7 l30 -90 z" fill="#161616"/><path d="M413.8 112.8 l-30 90 h7 l30 -90 z" fill="#161616"/><path d="M427.8 112.8 l-30 90 h7 l30 -90 z" fill="#161616"/><path d="M441.8 112.8 l-30 90 h7 l30 -90 z" fill="#161616"/><path d="M455.8 112.8 l-30 90 h7 l30 -90 z" fill="#161616"/><path d="M469.8 112.8 l-30 90 h7 l30 -90 z" fill="#161616"/><path d="M483.8 112.8 l-30 90 h7 l30 -90 z" fill="#161616"/><path d="M497.8 112.8 l-30 90 h7 l30 -90 z" fill="#161616"/><path d="M511.8 112.8 l-30 90 h7 l30 -90 z" fill="#161616"/><path d="M525.8 112.8 l-30 90 h7 l30 -90 z" fill="#161616"/><path d="M539.8 112.8 l-30 90 h7 l30 -90 z" fill="#161616"/><path d="M553.8 112.8 l-30 90 h7 l30 -90 z" fill="#161616"/><path d="M567.8 112.8 l-30 90 h7 l30 -90 z" fill="#161616"/><path d="M581.8 112.8 l-30 90 h7 l30 -90 z" fill="#161616"/></g><polyline points="60.2,126.4 168.3,188.8 259.8,136.0" fill="none" stroke="#f8cb52" stroke-width="2"/><path d="M262 36 L288 80 H236 Z" fill="#f8cb52" stroke="#161616" stroke-width="3" stroke-linejoin="round"/><path d="M262 54 V66" stroke="#161616" stroke-width="4" stroke-linecap="round"/><circle cx="262" cy="73" r="2.4" fill="#161616"/><polygon points="124.1,70.1 117.4,78.3 117.4,68.7 124.1,60.5" fill="#3d444e" stroke="#3d444e" stroke-width=".6" stroke-linejoin="round"/><polygon points="117.4,78.3 110.7,76.5 110.7,66.9 117.4,68.7" fill="#535c69" stroke="#535c69" stroke-width=".6" stroke-linejoin="round"/><polygon points="117.3,58.7 124.1,60.5 117.4,68.7 110.7,66.9" fill="#707b8b" stroke="#707b8b" stroke-width=".6" stroke-linejoin="round"/><polygon points="123.3,60.6 117.1,68.3 117.1,42.7 123.3,35.0" fill="#68707b" stroke="#68707b" stroke-width=".6" stroke-linejoin="round"/><polygon points="117.1,68.3 111.4,66.8 111.4,41.2 117.1,42.7" fill="#858e9a" stroke="#858e9a" stroke-width=".6" stroke-linejoin="round"/><polygon points="117.6,33.5 123.3,35.0 117.1,42.7 111.4,41.2" fill="#aab4c1" stroke="#aab4c1" stroke-width=".6" stroke-linejoin="round"/><polygon points="209.3,93.1 202.7,101.3 202.7,91.7 209.3,83.5" fill="#3d444e" stroke="#3d444e" stroke-width=".6" stroke-linejoin="round"/><polygon points="202.7,101.3 195.9,99.5 195.9,89.9 202.7,91.7" fill="#535c69" stroke="#535c69" stroke-width=".6" stroke-linejoin="round"/><polygon points="202.6,81.7 209.3,83.5 202.7,91.7 195.9,89.9" fill="#707b8b" stroke="#707b8b" stroke-width=".6" stroke-linejoin="round"/><polygon points="208.6,83.6 202.4,91.3 202.4,65.7 208.6,58.0" fill="#68707b" stroke="#68707b" stroke-width=".6" stroke-linejoin="round"/><polygon points="202.4,91.3 196.7,89.8 196.7,64.2 202.4,65.7" fill="#858e9a" stroke="#858e9a" stroke-width=".6" stroke-linejoin="round"/><polygon points="202.9,56.5 208.6,58.0 202.4,65.7 196.7,64.2" fill="#aab4c1" stroke="#aab4c1" stroke-width=".6" stroke-linejoin="round"/><polygon points="207.7,62.5 203.6,67.7 203.6,63.7 207.7,58.5" fill="#3d444e" stroke="#3d444e" stroke-width=".6" stroke-linejoin="round"/><polygon points="203.6,67.7 112.3,43.1 112.3,39.1 203.6,63.7" fill="#535c69" stroke="#535c69" stroke-width=".6" stroke-linejoin="round"/><polygon points="116.4,33.9 207.7,58.5 203.6,63.7 112.3,39.1" fill="#707b8b" stroke="#707b8b" stroke-width=".6" stroke-linejoin="round"/><polygon points="186.8,49.1 177.6,60.4 177.6,38.0 186.8,26.7" fill="#3d444e" stroke="#3d444e" stroke-width=".6" stroke-linejoin="round"/><polygon points="177.6,60.4 133.2,48.5 133.2,26.1 177.6,38.0" fill="#535c69" stroke="#535c69" stroke-width=".6" stroke-linejoin="round"/><polygon points="142.4,14.8 186.8,26.7 177.6,38.0 133.2,26.1" fill="#707b8b" stroke="#707b8b" stroke-width=".6" stroke-linejoin="round"/><polygon points="182.8,27.6 176.2,35.8 176.2,33.4 182.8,25.2" fill="#989ea8" stroke="#989ea8" stroke-width=".6" stroke-linejoin="round"/><polygon points="176.2,35.8 137.2,25.2 137.2,22.8 176.2,33.4" fill="#bfc4cb" stroke="#bfc4cb" stroke-width=".6" stroke-linejoin="round"/><polygon points="143.8,14.6 182.8,25.2 176.2,33.4 137.2,22.8" fill="#f1f4f8" stroke="#f1f4f8" stroke-width=".6" stroke-linejoin="round"/><path d="M145.3 24.0 A14.7 8.5 0 0 0 174.7 24.0 L174.7 17.6 A14.7 8.5 0 0 1 145.3 17.6 Z" fill="url(#isolate-cup-g9)" stroke="#79818c" stroke-width="1" stroke-opacity=".6"/><ellipse cx="160.0" cy="17.6" rx="14.7" ry="8.5" fill="#eceff4" stroke="#79818c" stroke-width="1" stroke-opacity=".6"/><path d="M141.4 17.6 A18.6 10.7 0 0 0 178.6 17.6 L178.6 4.8 A18.6 10.7 0 0 1 141.4 4.8 Z" fill="url(#isolate-cup-g10)" stroke="#11141a" stroke-width="1" stroke-opacity=".6"/><ellipse cx="160.0" cy="4.8" rx="18.6" ry="10.7" fill="#29313c" stroke="#11141a" stroke-width="1" stroke-opacity=".6"/><path d="M138.4 4.8 A21.6 12.4 0 0 0 181.6 4.8 L181.6 -155.2 A21.6 12.4 0 0 1 138.4 -155.2 Z" fill="url(#isolate-cup-g11)" stroke="#a1a6ae" stroke-width="1" stroke-opacity=".6"/><path d="M230.0 104.8 L230.0 64.8 M233.4 70.9 L230.0 64.8 L226.6 70.9" fill="none" stroke="#0b0f15" stroke-opacity=".55" stroke-width="6.5" stroke-linecap="round" stroke-linejoin="round"/><path d="M230.0 104.8 L230.0 64.8 M233.4 70.9 L230.0 64.8 L226.6 70.9" fill="none" stroke="#6b9bff" stroke-width="3.5" stroke-linecap="round" stroke-linejoin="round"/></svg>
