<svg viewBox="0 0 320 240" xmlns="http://www.w3.org/2000/svg" role="img" aria-label="적재 — 그릇"><defs><filter id="rack-bowl-blur" x="-50%" y="-50%" width="200%" height="200%"><feGaussianBlur stdDeviation="5"/></filter><filter id="rack-bowl-soft" x="-50%" y="-50%" width="200%" height="200%"><feGaussianBlur stdDeviation="2"/></filter><linearGradient id="rack-bowl-g1" x1="0" y1="0" x2="1" y2="0"><stop offset="0" stop-color="#2d3641"/><stop offset="0.22" stop-color="#37424f"/><stop offset="0.5" stop-color="#2f3844"/><stop offset="0.82" stop-color="#242c36"/><stop offset="1" stop-color="#1f262f"/></linearGradient><radialGradient id="rack-bowl-r2" cx="0.45" cy="0.4" r="0.7"><stop offset="0" stop-color="#3b4654"/><stop offset="0.75" stop-color="#2c3541"/><stop offset="1" stop-color="#252d38"/></radialGradient><linearGradient id="rack-bowl-g3" x1="0" y1="0" x2="1" y2="0"><stop offset="0" stop-color="#5b80ad"/><stop offset="0.22" stop-color="#729dd1"/><stop offset="0.5" stop-color="#5f85b3"/><stop offset="0.82" stop-color="#48698f"/><stop offset="1" stop-color="#3c597c"/></linearGradient><linearGradient id="rack-bowl-g4" x1="0" y1="0" x2="1" y2="0"><stop offset="0" stop-color="#5b80ad"/><stop offset="0.22" stop-color="#729dd1"/><stop offset="0.5" stop-color="#5f85b3"/><stop offset="0.82" stop-color="#48698f"/><stop offset="1" stop-color="#3c597c"/></linearGradient><linearGradient id="rack-bowl-g5" x1="0" y1="0" x2="1" y2="0"><stop offset="0" stop-color="#5b80ad"/><stop offset="0.22" stop-color="#729dd1"/><stop offset="0.5" stop-color="#5f85b3"/><stop offset="0.82" stop-color="#48698f"/><stop offset="1" stop-color="#3c597c"/></linearGradient><linearGradient id="rack-bowl-g6" x1="0" y1="0" x2="1" y2="0"><stop offset="0" stop-color="#5b80ad"/><stop offset="0.22" stop-color="#729dd1"/><stop offset="0.5" stop-color="#5f85b3"/><stop offset="0.82" stop-color="#48698f"/><stop offset="1" stop-color="#3c597c"/></linearGradient><linearGradient id="rack-bowl-g7" x1="0" y1="0" x2="1" y2="0"><stop offset="0" stop-color="#5b80ad"/><stop offset="0.22" stop-color="#729dd1"/><stop offset="0.5" stop-color="#5f85b3"/><stop offset="0.82" stop-color="#48698f"/><stop offset="1" stop-color="#3c597c"/></linearGradient><linearGradient id="rack-bowl-g8" x1="0" y1="0" x2="1" y2="0"><stop offset="0" stop-color="#5b80ad"/><stop offset="0.22" stop-color="#729dd1"/><stop offset="0.5" stop-color="#5f85b3"/><stop offset="0.82" stop-color="#48698f"/><stop offset="1" stop-color="#3c597c"/></linearGradient><linearGradient id="rack-bowl-g9" x1="0" y1="0" x2="1" y2="0"><stop offset="0" stop-color="#5b80ad"/><stop offset="0.22" stop-color="#729dd1"/><stop offset="0.5" stop-color="#5f85b3"/><stop offset="0.82" stop-color="#48698f"/><stop offset="1" stop-color="#3c597c"/></linearGradient><linearGradient id="rack-bowl-g10" x1="0" y1="0" x2="1" y2="0"><stop offset="0" stop-color="#5b80ad"/><stop offset="0.22" stop-color="#729dd1"/><stop offset="0.5" stop-color="#5f85b3"/><stop offset="0.82" stop-color="#48698f"/><stop offset="1" stop-color="#3c597c"/></linearGradient><linearGradient id="rack-bowl-g11" x1="0" y1="0" x2="1" y2="1"><stop offset="0" stop-color="#efb8c7"/><stop offset="0.45" stop-color="#d097a8"/><stop offset="1" stop-color="#a76a7f"/></linearGradient><linearGradient id="rack-bowl-g12" x1="1" y1="0" x2="0" y2="1"><stop offset="0" stop-color="#c78d9f"/><stop offset="0.5" stop-color="#ab6f83"/><stop offset="1" stop-color="#96586e"/></linearGradient><linearGradient id="rack-bowl-g13" x1="0" y1="0" x2="1" y2="0"><stop offset="0" stop-color="#5b80ad"/><stop offset="0.22" stop-color="#729dd1"/><stop offset="0.5" stop-color="#5f85b3"/><stop offset="0.82" stop-color="#48698f"/><stop offset="1" stop-color="#3c597c"/></linearGradient><linearGradient id="rack-bowl-g14" x1="0" y1="0" x2="1" y2="0"><stop offset="0" stop-color="#5b80ad"/><stop offset="0.22" stop-color="#729dd1"/><stop offset="0.5" stop-color="#5f85b3"/><stop offset="0.82" stop-color="#48698f"/><stop offset="1" stop-color="#3c597c"/></linearGradient><linearGradient id="rack-bowl-g15" x1="0" y1="0" x2="1" y2="0"><stop offset="0" stop-color="#5b80ad"/><stop offset="0.22" stop-color="#729dd1"/><stop offset="0.5" stop-color="#5f85b3"/><stop offset="0.82" stop-color="#48698f"/><stop offset="1" stop-color="#3c597c"/></linearGradient><linearGradient id="rack-bowl-g16" x1="0" y1="0" x2="1" y2="0"><stop offset="0" stop-color="#5b80ad"/><stop offset="0.22" stop-color="#729dd1"/><stop offset="0.5" stop-color="#5f85b3"/><stop offset="0.82" stop-color="#48698f"/><stop offset="1" stop-color="#3c597c"/></linearGradient><linearGradient id="rack-bowl-g17" x1="0" y1="0" x2="1" y2="0"><stop offset="0" stop-color="#5b80ad"/><stop offset="0.22" stop-color="#729dd1"/><stop offset="0.5" stop-color="#5f85b3"/><stop offset="0.82" stop-color="#48698f"/><stop offset="1" stop-color="#3c597c"/></linearGradient><linearGradient id="rack-bowl-g18" x1="0" y1="0" x2="1" y2="0"><stop offset="0" stop-color="#5b80ad"/><stop offset="0.22" stop-color="#729dd1"/><stop offset="0.5" stop-color="#5f85b3"/><stop offset="0.82" stop-color="#48698f"/><stop offset="1" stop-color="#3c597c"/></linearGradient><linearGradient id="rack-bowl-g19" x1="0" y1="0" x2="1" y2="0"><stop offset="0" stop-color="#5b80ad"/><stop offset="0.22" stop-color="#729dd1"/><stop offset="0.5" stop-color="#5f85b3"/><stop offset="0.82" stop-color="#48698f"/><stop offset="1" stop-color="#3c597c"/></linearGradient><linearGradient id="rack-bowl-g20" x1="0" y1="0" x2="1" y2="0"><stop offset="0" stop-color="#5b80ad"/><stop offset="0.22" stop-color="#729dd1"/><stop offset="0.5" stop-color="#5f85b3"/><stop offset="0.82" stop-color="#48698f"/><stop offset="1" stop-color="#3c597c"/></linearGradient><linearGradient id="rack-bowl-g21" x1="0" y1="0" x2="1" y2="0"><stop offset="0" stop-color="#bfc4cb"/><stop offset="0.22" stop-color="#e4e7ec"/><stop offset="0.5" stop-color="#c6cad1"/><stop offset="0.82" stop-color="#a1a7b0"/><stop offset="1" stop-color="#8d949e"/></linearGradient><linearGradient id="rack-bowl-g22" x1="0" y1="0" x2="1" y2="0"><stop offset="0" stop-color="#20262f"/><stop offset="0.22" stop-color="#272f39"/><stop offset="0.5" stop-color="#212731"/><stop offset="0.82" stop-color="#191e26"/><stop offset="1" stop-color="#151920"/></linearGradient><linearGradient id="rack-bowl-g23" x1="0" y1="0" x2="1" y2="0"><stop offset="0" stop-color="#d8dadd"/><stop offset="0.22" stop-color="#f5f5f6"/><stop offset="0.5" stop-color="#dddfe2"/><stop offset="0.82" stop-color="#c0c4c9"/><stop offset="1" stop-color="#b0b5bc"/></linearGradient></defs><ellipse cx="160.0" cy="177.6" rx="99.9" ry="57.7" fill="#000" fill-opacity="0.35" filter="url(#rack-bowl-blur)"/><path d="M62.0 176.0 A98.0 56.6 0 0 0 258.0 176.0 L258.0 168.0 A98.0 56.6 0 0 1 62.0 168.0 Z" fill="url(#rack-bowl-g1)"/><ellipse cx="160.0" cy="168.0" rx="98.0" ry="56.6" fill="url(#rack-bowl-r2)" stroke="#4a5666" stroke-width="1"/><ellipse cx="160.0" cy="168.0" rx="90.1" ry="52.0" fill="#000" fill-opacity="0.35" filter="url(#rack-bowl-blur)"/><polygon points="270.9,172.8 168.3,232.0 168.3,227.2 270.9,168.0" fill="#46668c" stroke="#46668c" stroke-width=".6" stroke-linejoin="round"/><polygon points="168.3,232.0 49.1,163.2 49.1,158.4 168.3,227.2" fill="#6086b5" stroke="#6086b5" stroke-width=".6" stroke-linejoin="round"/><polygon points="151.7,99.2 270.9,168.0 168.3,227.2 49.1,158.4" fill="#7aa7de" stroke="#7aa7de" stroke-width=".6" stroke-linejoin="round"/><line x1="166.6" y1="107.8" x2="64.0" y2="167.0" stroke="#5d83b0" stroke-width="1"/><line x1="181.5" y1="116.4" x2="78.9" y2="175.6" stroke="#5d83b0" stroke-width="1"/><line x1="196.4" y1="125.0" x2="93.8" y2="184.2" stroke="#5d83b0" stroke-width="1"/><line x1="211.3" y1="133.6" x2="108.7" y2="192.8" stroke="#5d83b0" stroke-width="1"/><line x1="226.2" y1="142.2" x2="123.6" y2="201.4" stroke="#5d83b0" stroke-width="1"/><line x1="241.1" y1="150.8" x2="138.5" y2="210.0" stroke="#5d83b0" stroke-width="1"/><line x1="256.0" y1="159.4" x2="153.4" y2="218.6" stroke="#5d83b0" stroke-width="1"/><line x1="137.0" y1="107.7" x2="256.2" y2="176.5" stroke="#5d83b0" stroke-width="1"/><line x1="122.4" y1="116.1" x2="241.6" y2="184.9" stroke="#5d83b0" stroke-width="1"/><line x1="107.7" y1="124.6" x2="226.9" y2="193.4" stroke="#5d83b0" stroke-width="1"/><line x1="93.1" y1="133.0" x2="212.3" y2="201.8" stroke="#5d83b0" stroke-width="1"/><line x1="78.4" y1="141.5" x2="197.6" y2="210.3" stroke="#5d83b0" stroke-width="1"/><line x1="63.8" y1="149.9" x2="183.0" y2="218.7" stroke="#5d83b0" stroke-width="1"/><path d="M184.2 127.2 A2.2 1.2 0 0 0 188.5 127.2 L188.5 98.4 A2.2 1.2 0 0 1 184.2 98.4 Z" fill="url(#rack-bowl-g3)" stroke="#2f4968" stroke-width="1" stroke-opacity=".6"/><ellipse cx="186.3" cy="98.4" rx="2.2" ry="1.2" fill="#77a3d9" stroke="#2f4968" stroke-width="1" stroke-opacity=".6"/><path d="M171.7 134.4 A2.2 1.2 0 0 0 176.0 134.4 L176.0 105.6 A2.2 1.2 0 0 1 171.7 105.6 Z" fill="url(#rack-bowl-g4)" stroke="#2f4968" stroke-width="1" stroke-opacity=".6"/><ellipse cx="173.9" cy="105.6" rx="2.2" ry="1.2" fill="#77a3d9" stroke="#2f4968" stroke-width="1" stroke-opacity=".6"/><path d="M159.2 141.6 A2.2 1.2 0 0 0 163.5 141.6 L163.5 112.8 A2.2 1.2 0 0 1 159.2 112.8 Z" fill="url(#rack-bowl-g5)" stroke="#2f4968" stroke-width="1" stroke-opacity=".6"/><ellipse cx="161.4" cy="112.8" rx="2.2" ry="1.2" fill="#77a3d9" stroke="#2f4968" stroke-width="1" stroke-opacity=".6"/><path d="M146.8 148.8 A2.2 1.2 0 0 0 151.1 148.8 L151.1 120.0 A2.2 1.2 0 0 1 146.8 120.0 Z" fill="url(#rack-bowl-g6)" stroke="#2f4968" stroke-width="1" stroke-opacity=".6"/><ellipse cx="148.9" cy="120.0" rx="2.2" ry="1.2" fill="#77a3d9" stroke="#2f4968" stroke-width="1" stroke-opacity=".6"/><path d="M132.9 156.8 A2.2 1.2 0 0 0 137.2 156.8 L137.2 128.0 A2.2 1.2 0 0 1 132.9 128.0 Z" fill="url(#rack-bowl-g7)" stroke="#2f4968" stroke-width="1" stroke-opacity=".6"/><ellipse cx="135.1" cy="128.0" rx="2.2" ry="1.2" fill="#77a3d9" stroke="#2f4968" stroke-width="1" stroke-opacity=".6"/><path d="M120.4 164.0 A2.2 1.2 0 0 0 124.7 164.0 L124.7 135.2 A2.2 1.2 0 0 1 120.4 135.2 Z" fill="url(#rack-bowl-g8)" stroke="#2f4968" stroke-width="1" stroke-opacity=".6"/><ellipse cx="122.6" cy="135.2" rx="2.2" ry="1.2" fill="#77a3d9" stroke="#2f4968" stroke-width="1" stroke-opacity=".6"/><path d="M108.0 171.2 A2.2 1.2 0 0 0 112.3 171.2 L112.3 142.4 A2.2 1.2 0 0 1 108.0 142.4 Z" fill="url(#rack-bowl-g9)" stroke="#2f4968" stroke-width="1" stroke-opacity=".6"/><ellipse cx="110.1" cy="142.4" rx="2.2" ry="1.2" fill="#77a3d9" stroke="#2f4968" stroke-width="1" stroke-opacity=".6"/><path d="M95.5 178.4 A2.2 1.2 0 0 0 99.8 178.4 L99.8 149.6 A2.2 1.2 0 0 1 95.5 149.6 Z" fill="url(#rack-bowl-g10)" stroke="#2f4968" stroke-width="1" stroke-opacity=".6"/><ellipse cx="97.6" cy="149.6" rx="2.2" ry="1.2" fill="#77a3d9" stroke="#2f4968" stroke-width="1" stroke-opacity=".6"/><ellipse cx="160.0" cy="163.2" rx="29.4" ry="10.2" fill="#000" fill-opacity="0.4" filter="url(#rack-bowl-blur)"/><polygon points="115.7,110.4 115.9,105.7 116.7,100.7 118.0,95.6 119.7,90.4 122.0,85.3 124.6,80.3 127.6,75.6 130.9,71.1 134.5,67.0 138.2,63.4 142.2,60.2 146.1,57.6 150.1,55.6 154.0,54.2 157.8,53.5 161.4,53.5 164.7,54.2 197.1,60.5 200.8,62.1 204.1,64.6 206.9,67.8 209.1,71.6 210.7,76.2 211.6,81.2 212.0,86.8 211.6,92.7 210.7,98.9 209.1,105.3 206.9,111.8 204.1,118.1 200.8,124.4 197.1,130.3 192.9,135.9 188.4,141.0 183.7,145.6 178.8,149.6 173.9,152.8 168.9,155.3 164.0,157.0 159.3,157.9 154.8,157.9 150.7,157.1 146.9,155.5 143.6,153.0 122.0,128.2 119.7,125.6 118.0,122.5 116.7,118.9 115.9,114.8" fill="url(#rack-bowl-g11)" stroke="#905268" stroke-width="1" stroke-opacity=".5"/><polygon points="128.8,132.4 129.2,125.7 130.3,118.7 132.1,111.5 134.6,104.3 137.7,97.1 141.4,90.1 145.6,83.3 150.3,77.0 155.3,71.3 160.7,66.1 166.2,61.7 171.8,58.0 177.4,55.2 182.9,53.3 188.2,52.3 193.3,52.2 197.9,53.1 202.2,55.0 204.2,56.2 207.9,58.9 211.1,62.5 213.5,66.9 215.3,72.0 216.4,77.7 216.8,84.0 216.4,90.7 215.3,97.7 213.5,104.9 211.1,112.1 207.9,119.3 204.2,126.3 200.0,133.1 195.3,139.3 190.3,145.1 185.0,150.3 179.5,154.7 173.9,158.4 168.2,161.2 162.7,163.1 157.4,164.1 152.4,164.2 147.7,163.2 143.5,161.4 141.4,160.2 137.7,157.5 134.6,153.9 132.1,149.5 130.3,144.4 129.2,138.7" fill="#be8396"/><polygon points="130.9,133.6 131.3,126.9 132.4,119.9 134.2,112.7 136.7,105.5 139.8,98.3 143.5,91.3 147.7,84.5 152.4,78.2 157.4,72.5 162.7,67.3 168.2,62.9 173.9,59.2 179.5,56.4 185.0,54.5 190.3,53.5 195.3,53.4 200.0,54.4 204.2,56.2 207.9,58.9 211.1,62.5 213.5,66.9 215.3,72.0 216.4,77.7 216.8,84.0 216.4,90.7 215.3,97.7 213.5,104.9 211.1,112.1 207.9,119.3 204.2,126.3 200.0,133.1 195.3,139.4 190.3,145.1 185.0,150.3 179.5,154.7 173.9,158.4 168.2,161.2 162.7,163.1 157.4,164.1 152.4,164.2 147.7,163.2 143.5,161.4 139.8,158.7 136.7,155.1 134.2,150.7 132.4,145.6 131.3,139.9" fill="#f3bdcb" stroke="#a76a7f" stroke-width=".8" stroke-opacity=".6"/><polygon points="135.8,130.8 136.1,124.9 137.0,118.7 138.7,112.3 140.9,105.9 143.6,99.5 146.9,93.2 150.7,87.3 154.8,81.7 159.3,76.6 164.0,72.0 168.9,68.0 173.9,64.8 178.8,62.3 183.7,60.6 188.4,59.7 192.9,59.7 197.1,60.5 200.8,62.1 204.1,64.6 206.9,67.7 209.1,71.6 210.7,76.2 211.6,81.2 212.0,86.8 211.6,92.7 210.7,98.9 209.1,105.3 206.9,111.7 204.1,118.1 200.8,124.4 197.1,130.3 192.9,135.9 188.4,141.0 183.7,145.6 178.8,149.6 173.9,152.8 168.9,155.3 164.0,157.0 159.3,157.9 154.8,157.9 150.7,157.1 146.9,155.5 143.6,153.0 140.9,149.9 138.7,146.0 137.0,141.4 136.1,136.4" fill="#f9c3d1"/><polygon points="138.2,129.4 138.5,123.8 139.4,118.0 140.9,112.1 143.0,106.0 145.5,100.1 148.6,94.2 152.1,88.7 156.0,83.4 160.2,78.6 164.6,74.3 169.2,70.6 173.9,67.6 178.5,65.3 183.1,63.7 187.5,62.9 191.7,62.8 195.6,63.6 199.1,65.1 202.2,67.4 204.8,70.4 206.8,74.0 208.3,78.2 209.2,83.0 209.5,88.2 209.2,93.8 208.3,99.6 206.8,105.5 204.8,111.6 202.2,117.5 199.1,123.4 195.6,128.9 191.7,134.2 187.5,139.0 183.1,143.3 178.5,147.0 173.9,150.0 169.2,152.3 164.6,153.9 160.2,154.7 156.0,154.8 152.1,154.0 148.6,152.5 145.5,150.2 143.0,147.2 140.9,143.6 139.4,139.4 138.5,134.6" fill="url(#rack-bowl-g12)" stroke="#ae7286" stroke-width="1"/><polygon points="121.2,110.4 121.4,106.1 122.1,101.6 123.3,96.9 124.9,92.3 126.9,87.6 129.3,83.1 132.0,78.8 135.1,74.7 138.3,71.0 141.7,67.6 145.3,64.8 148.9,62.4 152.5,60.6 156.1,59.3 159.5,58.7 162.8,58.7 165.8,59.3 168.5,60.5 170.9,62.2 172.9,64.5 174.5,67.4 175.7,70.7 176.4,74.4 176.6,78.4 176.4,82.7 175.7,87.2 174.5,91.9 172.9,96.5 170.9,101.2 168.5,105.7 165.8,110.0 162.8,114.1 159.5,117.8 156.1,121.2 152.5,124.0 148.9,126.4 145.3,128.2 141.7,129.5 138.3,130.1 135.1,130.1 132.0,129.5 129.3,128.3 126.9,126.6 124.9,124.3 123.3,121.4 122.1,118.1 121.4,114.4" fill="#ecb4c4" fill-opacity="0.9"/><polyline points="204.6,100.6 203.3,105.9 201.5,111.3 199.1,116.6 196.4,121.8 193.3,126.8 189.8,131.5 186.1,135.8 182.1,139.6 178.0,142.9" fill="none" stroke="#fff" stroke-opacity="0.7" stroke-width="2.5" stroke-linecap="round"/><path d="M220.2 148.0 A2.2 1.2 0 0 0 224.5 148.0 L224.5 119.2 A2.2 1.2 0 0 1 220.2 119.2 Z" fill="url(#rack-bowl-g13)" stroke="#2f4968" stroke-width="1" stroke-opacity=".6"/><ellipse cx="222.4" cy="119.2" rx="2.2" ry="1.2" fill="#77a3d9" stroke="#2f4968" stroke-width="1" stroke-opacity=".6"/><path d="M207.7 155.2 A2.2 1.2 0 0 0 212.0 155.2 L212.0 126.4 A2.2 1.2 0 0 1 207.7 126.4 Z" fill="url(#rack-bowl-g14)" stroke="#2f4968" stroke-width="1" stroke-opacity=".6"/><ellipse cx="209.9" cy="126.4" rx="2.2" ry="1.2" fill="#77a3d9" stroke="#2f4968" stroke-width="1" stroke-opacity=".6"/><path d="M195.3 162.4 A2.2 1.2 0 0 0 199.6 162.4 L199.6 133.6 A2.2 1.2 0 0 1 195.3 133.6 Z" fill="url(#rack-bowl-g15)" stroke="#2f4968" stroke-width="1" stroke-opacity=".6"/><ellipse cx="197.4" cy="133.6" rx="2.2" ry="1.2" fill="#77a3d9" stroke="#2f4968" stroke-width="1" stroke-opacity=".6"/><path d="M182.8 169.6 A2.2 1.2 0 0 0 187.1 169.6 L187.1 140.8 A2.2 1.2 0 0 1 182.8 140.8 Z" fill="url(#rack-bowl-g16)" stroke="#2f4968" stroke-width="1" stroke-opacity=".6"/><ellipse cx="184.9" cy="140.8" rx="2.2" ry="1.2" fill="#77a3d9" stroke="#2f4968" stroke-width="1" stroke-opacity=".6"/><path d="M168.9 177.6 A2.2 1.2 0 0 0 173.2 177.6 L173.2 148.8 A2.2 1.2 0 0 1 168.9 148.8 Z" fill="url(#rack-bowl-g17)" stroke="#2f4968" stroke-width="1" stroke-opacity=".6"/><ellipse cx="171.1" cy="148.8" rx="2.2" ry="1.2" fill="#77a3d9" stroke="#2f4968" stroke-width="1" stroke-opacity=".6"/><path d="M156.5 184.8 A2.2 1.2 0 0 0 160.8 184.8 L160.8 156.0 A2.2 1.2 0 0 1 156.5 156.0 Z" fill="url(#rack-bowl-g18)" stroke="#2f4968" stroke-width="1" stroke-opacity=".6"/><ellipse cx="158.6" cy="156.0" rx="2.2" ry="1.2" fill="#77a3d9" stroke="#2f4968" stroke-width="1" stroke-opacity=".6"/><path d="M144.0 192.0 A2.2 1.2 0 0 0 148.3 192.0 L148.3 163.2 A2.2 1.2 0 0 1 144.0 163.2 Z" fill="url(#rack-bowl-g19)" stroke="#2f4968" stroke-width="1" stroke-opacity=".6"/><ellipse cx="146.1" cy="163.2" rx="2.2" ry="1.2" fill="#77a3d9" stroke="#2f4968" stroke-width="1" stroke-opacity=".6"/><path d="M131.5 199.2 A2.2 1.2 0 0 0 135.8 199.2 L135.8 170.4 A2.2 1.2 0 0 1 131.5 170.4 Z" fill="url(#rack-bowl-g20)" stroke="#2f4968" stroke-width="1" stroke-opacity=".6"/><ellipse cx="133.7" cy="170.4" rx="2.2" ry="1.2" fill="#77a3d9" stroke="#2f4968" stroke-width="1" stroke-opacity=".6"/><polygon points="179.3,73.5 168.2,79.9 168.2,70.3 179.3,63.9" fill="#404852" stroke="#404852" stroke-width=".6" stroke-linejoin="round"/><polygon points="168.2,79.9 162.9,76.9 162.9,67.3 168.2,70.3" fill="#58616e" stroke="#58616e" stroke-width=".6" stroke-linejoin="round"/><polygon points="174.0,60.9 179.3,63.9 168.2,70.3 162.9,67.3" fill="#707b8b" stroke="#707b8b" stroke-width=".6" stroke-linejoin="round"/><polygon points="178.5,63.9 168.1,69.9 168.1,41.1 178.5,35.1" fill="#6c7480" stroke="#6c7480" stroke-width=".6" stroke-linejoin="round"/><polygon points="168.1,69.9 163.7,67.3 163.7,38.5 168.1,41.1" fill="#8b94a0" stroke="#8b94a0" stroke-width=".6" stroke-linejoin="round"/><polygon points="174.1,32.5 178.5,35.1 168.1,41.1 163.7,38.5" fill="#aab4c1" stroke="#aab4c1" stroke-width=".6" stroke-linejoin="round"/><polygon points="187.6,78.3 176.5,84.7 176.5,75.1 187.6,68.7" fill="#404852" stroke="#404852" stroke-width=".6" stroke-linejoin="round"/><polygon points="176.5,84.7 171.2,81.7 171.2,72.1 176.5,75.1" fill="#58616e" stroke="#58616e" stroke-width=".6" stroke-linejoin="round"/><polygon points="182.3,65.7 187.6,68.7 176.5,75.1 171.2,72.1" fill="#707b8b" stroke="#707b8b" stroke-width=".6" stroke-linejoin="round"/><polygon points="186.8,68.7 176.4,74.7 176.4,45.9 186.8,39.9" fill="#6c7480" stroke="#6c7480" stroke-width=".6" stroke-linejoin="round"/><polygon points="176.4,74.7 172.0,72.1 172.0,43.3 176.4,45.9" fill="#8b94a0" stroke="#8b94a0" stroke-width=".6" stroke-linejoin="round"/><polygon points="182.4,37.3 186.8,39.9 176.4,45.9 172.0,43.3" fill="#aab4c1" stroke="#aab4c1" stroke-width=".6" stroke-linejoin="round"/><polygon points="196.0,41.6 180.8,50.4 180.8,28.0 196.0,19.2" fill="#404852" stroke="#404852" stroke-width=".6" stroke-linejoin="round"/><polygon points="180.8,50.4 154.5,35.2 154.5,12.8 180.8,28.0" fill="#58616e" stroke="#58616e" stroke-width=".6" stroke-linejoin="round"/><polygon points="169.7,4.0 196.0,19.2 180.8,28.0 154.5,12.8" fill="#707b8b" stroke="#707b8b" stroke-width=".6" stroke-linejoin="round"/><polygon points="191.9,19.2 180.8,25.6 180.8,23.2 191.9,16.8" fill="#9ea4ad" stroke="#9ea4ad" stroke-width=".6" stroke-linejoin="round"/><polygon points="180.8,25.6 158.6,12.8 158.6,10.4 180.8,23.2" fill="#c7ccd2" stroke="#c7ccd2" stroke-width=".6" stroke-linejoin="round"/><polygon points="169.7,4.0 191.9,16.8 180.8,23.2 158.6,10.4" fill="#f1f4f8" stroke="#f1f4f8" stroke-width=".6" stroke-linejoin="round"/><path d="M160.5 13.6 A14.7 8.5 0 0 0 189.9 13.6 L189.9 7.2 A14.7 8.5 0 0 1 160.5 7.2 Z" fill="url(#rack-bowl-g21)" stroke="#79818c" stroke-width="1" stroke-opacity=".6"/><ellipse cx="175.2" cy="7.2" rx="14.7" ry="8.5" fill="#eceff4" stroke="#79818c" stroke-width="1" stroke-opacity=".6"/><path d="M156.6 7.2 A18.6 10.7 0 0 0 193.9 7.2 L193.9 -5.6 A18.6 10.7 0 0 1 156.6 -5.6 Z" fill="url(#rack-bowl-g22)" stroke="#11141a" stroke-width="1" stroke-opacity=".6"/><ellipse cx="175.2" cy="-5.6" rx="18.6" ry="10.7" fill="#29313c" stroke="#11141a" stroke-width="1" stroke-opacity=".6"/><path d="M153.7 -5.6 A21.6 12.4 0 0 0 196.8 -5.6 L196.8 -165.6 A21.6 12.4 0 0 1 153.7 -165.6 Z" fill="url(#rack-bowl-g23)" stroke="#a1a6ae" stroke-width="1" stroke-opacity=".6"/><path d="M91.0 85.6 L91.0 139.6 M87.2 132.6 L91.0 139.6 L94.9 132.6" fill="none" stroke="#0b0f15" stroke-opacity=".55" stroke-width="7" stroke-linecap="round" stroke-linejoin="round"/><path d="M91.0 85.6 L91.0 139.6 M87.2 132.6 L91.0 139.6 L94.9 132.6" fill="none" stroke="#6b9bff" stroke-width="4" stroke-linecap="round" stroke-linejoin="round"/></svg>
