<svg viewBox="0 0 320 240" xmlns="http://www.w3.org/2000/svg" role="img" aria-label="헹굼 — 컵"><defs><filter id="rinse-cup-blur" x="-50%" y="-50%" width="200%" height="200%"><feGaussianBlur stdDeviation="5"/></filter><filter id="rinse-cup-soft" x="-50%" y="-50%" width="200%" height="200%"><feGaussianBlur stdDeviation="2"/></filter><linearGradient id="rinse-cup-g1" x1="0" y1="0" x2="1" y2="0"><stop offset="0" stop-color="#2d3641"/><stop offset="0.22" stop-color="#37424f"/><stop offset="0.5" stop-color="#2f3844"/><stop offset="0.82" stop-color="#242c36"/><stop offset="1" stop-color="#1f262f"/></linearGradient><radialGradient id="rinse-cup-r2" cx="0.45" cy="0.4" r="0.7"><stop offset="0" stop-color="#3b4654"/><stop offset="0.75" stop-color="#2c3541"/><stop offset="1" stop-color="#252d38"/></radialGradient><linearGradient id="rinse-cup-g3" x1="0" y1="0" x2="1" y2="0"><stop offset="0" stop-color="#dcdad6"/><stop offset="0.22" stop-color="#f6f5f4"/><stop offset="0.5" stop-color="#e1dfdc"/><stop offset="0.82" stop-color="#c7c3be"/><stop offset="1" stop-color="#b9b5ad"/></linearGradient><linearGradient id="rinse-cup-g4" x1="0" y1="0" x2="0" y2="1"><stop offset="0" stop-color="#c4c1bb"/><stop offset="0.55" stop-color="#e1dfdc"/><stop offset="1" stop-color="#f3f3f1"/></linearGradient><clipPath id="rinse-cup-wl5"><rect x="-2000" y="-2000" width="4000" height="2131.2"/><ellipse cx="160.0" cy="131.2" rx="34.4" ry="19.9"/></clipPath><linearGradient id="rinse-cup-g6" x1="0" y1="0" x2="1" y2="0"><stop offset="0" stop-color="#dcdad6"/><stop offset="0.22" stop-color="#f6f5f4"/><stop offset="0.5" stop-color="#e1dfdc"/><stop offset="0.82" stop-color="#c7c3be"/><stop offset="1" stop-color="#b9b5ad"/></linearGradient><linearGradient id="rinse-cup-g7" x1="0" y1="0" x2="0" y2="1"><stop offset="0" stop-color="#c4c1bb"/><stop offset="0.55" stop-color="#e1dfdc"/><stop offset="1" stop-color="#f3f3f1"/></linearGradient><linearGradient id="rinse-cup-g8" x1="0" y1="0" x2="1" y2="0"><stop offset="0" stop-color="#bfc4cb"/><stop offset="0.22" stop-color="#e4e7ec"/><stop offset="0.5" stop-color="#c6cad1"/><stop offset="0.82" stop-color="#a1a7b0"/><stop offset="1" stop-color="#8d949e"/></linearGradient><linearGradient id="rinse-cup-g9" x1="0" y1="0" x2="1" y2="0"><stop offset="0" stop-color="#20262f"/><stop offset="0.22" stop-color="#272f39"/><stop offset="0.5" stop-color="#212731"/><stop offset="0.82" stop-color="#191e26"/><stop offset="1" stop-color="#151920"/></linearGradient><linearGradient id="rinse-cup-g10" x1="0" y1="0" x2="1" y2="0"><stop offset="0" stop-color="#d8dadd"/><stop offset="0.22" stop-color="#f5f5f6"/><stop offset="0.5" stop-color="#dddfe2"/><stop offset="0.82" stop-color="#c0c4c9"/><stop offset="1" stop-color="#b0b5bc"/></linearGradient></defs><ellipse cx="160.0" cy="177.6" rx="99.9" ry="57.7" fill="#000" fill-opacity="0.35" filter="url(#rinse-cup-blur)"/><path d="M62.0 176.0 A98.0 56.6 0 0 0 258.0 176.0 L258.0 168.0 A98.0 56.6 0 0 1 62.0 168.0 Z" fill="url(#rinse-cup-g1)"/><ellipse cx="160.0" cy="168.0" rx="98.0" ry="56.6" fill="url(#rinse-cup-r2)" stroke="#4a5666" stroke-width="1"/><ellipse cx="160.0" cy="168.0" rx="78.4" ry="45.3" fill="#000" fill-opacity="0.35" filter="url(#rinse-cup-blur)"/><polygon points="147.5,114.4 252.8,175.2 252.8,124.0 147.5,63.2" fill="#8298af" fill-opacity=".55"/><polygon points="147.5,114.4 67.2,160.8 67.2,109.6 147.5,63.2" fill="#9bb0c5" fill-opacity=".55"/><polygon points="147.5,114.4 252.8,175.2 172.5,221.6 67.2,160.8" fill="#7088a1" fill-opacity=".6"/><polygon points="147.5,77.6 252.8,138.4 172.5,184.8 67.2,124.0" fill="#89b6f0" fill-opacity=".55"/><polygon points="132.9,130.1 126.3,138.3 126.3,128.7 132.9,120.5" fill="#3d444e" stroke="#3d444e" stroke-width=".6" stroke-linejoin="round"/><polygon points="126.3,138.3 119.6,136.5 119.6,126.9 126.3,128.7" fill="#535c69" stroke="#535c69" stroke-width=".6" stroke-linejoin="round"/><polygon points="126.2,118.7 132.9,120.5 126.3,128.7 119.6,126.9" fill="#707b8b" stroke="#707b8b" stroke-width=".6" stroke-linejoin="round"/><polygon points="132.2,120.6 126.0,128.3 126.0,78.7 132.2,71.0" fill="#68707b" stroke="#68707b" stroke-width=".6" stroke-linejoin="round"/><polygon points="126.0,128.3 120.3,126.8 120.3,77.2 126.0,78.7" fill="#858e9a" stroke="#858e9a" stroke-width=".6" stroke-linejoin="round"/><polygon points="126.5,69.5 132.2,71.0 126.0,78.7 120.3,77.2" fill="#aab4c1" stroke="#aab4c1" stroke-width=".6" stroke-linejoin="round"/><path d="M129.6 166.4 A30.4 17.5 0 0 0 190.4 166.4 L198.2 97.6 A38.2 22.1 0 0 1 121.8 97.6 Z" fill="url(#rinse-cup-g3)" stroke="#aba69d" stroke-width="1" stroke-opacity=".6"/><ellipse cx="160.0" cy="97.6" rx="38.2" ry="22.1" fill="#fefefe" stroke="#bfbbb4" stroke-width="1" stroke-opacity=".5"/><ellipse cx="160.0" cy="97.6" rx="34.8" ry="20.1" fill="url(#rinse-cup-g4)"/><path d="M125.2 97.6 A34.8 20.1 0 0 1 194.8 97.6" fill="none" stroke="#b9b5ad" stroke-width="2.5" stroke-opacity=".45"/><path d="M136.3 114.1 Q133.3 136.0 138.3 168.4" stroke="#fff" stroke-opacity=".55" stroke-width="3" fill="none" stroke-linecap="round"/><polygon points="147.5,77.6 252.8,138.4 172.5,184.8 67.2,124.0" fill="#83b0eb" fill-opacity=".5"/><ellipse cx="160.0" cy="131.2" rx="41.3" ry="23.8" fill="none" stroke="#ffffff" stroke-opacity="0.85" stroke-width="1.6"/><ellipse cx="160.0" cy="131.2" rx="50.9" ry="29.4" fill="none" stroke="#ffffff" stroke-opacity="0.5" stroke-width="1.6"/><ellipse cx="160.0" cy="131.2" rx="61.9" ry="35.7" fill="none" stroke="#ffffff" stroke-opacity="0.28" stroke-width="1.6"/><g clip-path="url(#rinse-cup-wl5)"><path d="M129.6 166.4 A30.4 17.5 0 0 0 190.4 166.4 L198.2 97.6 A38.2 22.1 0 0 1 121.8 97.6 Z" fill="url(#rinse-cup-g6)" stroke="#aba69d" stroke-width="1" stroke-opacity=".6"/><ellipse cx="160.0" cy="97.6" rx="38.2" ry="22.1" fill="#fefefe" stroke="#bfbbb4" stroke-width="1" stroke-opacity=".5"/><ellipse cx="160.0" cy="97.6" rx="34.8" ry="20.1" fill="url(#rinse-cup-g7)"/><path d="M125.2 97.6 A34.8 20.1 0 0 1 194.8 97.6" fill="none" stroke="#b9b5ad" stroke-width="2.5" stroke-opacity=".45"/><path d="M136.3 114.1 Q133.3 136.0 138.3 168.4" stroke="#fff" stroke-opacity=".55" stroke-width="3" fill="none" stroke-linecap="round"/></g><ellipse cx="160.0" cy="131.2" rx="34.4" ry="19.9" fill="none" stroke="#ffffff" stroke-opacity=".9" stroke-width="1.4"/><polygon points="200.4,148.3 193.8,156.5 193.8,146.9 200.4,138.7" fill="#3d444e" stroke="#3d444e" stroke-width=".6" stroke-linejoin="round"/><polygon points="193.8,156.5 187.1,154.7 187.1,145.1 193.8,146.9" fill="#535c69" stroke="#535c69" stroke-width=".6" stroke-linejoin="round"/><polygon points="193.7,136.9 200.4,138.7 193.8,146.9 187.1,145.1" fill="#707b8b" stroke="#707b8b" stroke-width=".6" stroke-linejoin="round"/><polygon points="199.7,138.8 193.5,146.5 193.5,96.9 199.7,89.2" fill="#68707b" stroke="#68707b" stroke-width=".6" stroke-linejoin="round"/><polygon points="193.5,146.5 187.8,145.0 187.8,95.4 193.5,96.9" fill="#858e9a" stroke="#858e9a" stroke-width=".6" stroke-linejoin="round"/><polygon points="194.0,87.7 199.7,89.2 193.5,96.9 187.8,95.4" fill="#aab4c1" stroke="#aab4c1" stroke-width=".6" stroke-linejoin="round"/><polygon points="198.8,93.7 194.7,98.9 194.7,94.9 198.8,89.7" fill="#3d444e" stroke="#3d444e" stroke-width=".6" stroke-linejoin="round"/><polygon points="194.7,98.9 121.2,79.1 121.2,75.1 194.7,94.9" fill="#535c69" stroke="#535c69" stroke-width=".6" stroke-linejoin="round"/><polygon points="125.3,69.9 198.8,89.7 194.7,94.9 121.2,75.1" fill="#707b8b" stroke="#707b8b" stroke-width=".6" stroke-linejoin="round"/><polygon points="186.8,82.7 177.6,94.0 177.6,71.6 186.8,60.3" fill="#3d444e" stroke="#3d444e" stroke-width=".6" stroke-linejoin="round"/><polygon points="177.6,94.0 133.2,82.1 133.2,59.7 177.6,71.6" fill="#535c69" stroke="#535c69" stroke-width=".6" stroke-linejoin="round"/><polygon points="142.4,48.4 186.8,60.3 177.6,71.6 133.2,59.7" fill="#707b8b" stroke="#707b8b" stroke-width=".6" stroke-linejoin="round"/><polygon points="182.8,61.2 176.2,69.4 176.2,67.0 182.8,58.8" fill="#989ea8" stroke="#989ea8" stroke-width=".6" stroke-linejoin="round"/><polygon points="176.2,69.4 137.2,58.8 137.2,56.4 176.2,67.0" fill="#bfc4cb" stroke="#bfc4cb" stroke-width=".6" stroke-linejoin="round"/><polygon points="143.8,48.2 182.8,58.8 176.2,67.0 137.2,56.4" fill="#f1f4f8" stroke="#f1f4f8" stroke-width=".6" stroke-linejoin="round"/><path d="M145.3 57.6 A14.7 8.5 0 0 0 174.7 57.6 L174.7 51.2 A14.7 8.5 0 0 1 145.3 51.2 Z" fill="url(#rinse-cup-g8)" stroke="#79818c" stroke-width="1" stroke-opacity=".6"/><ellipse cx="160.0" cy="51.2" rx="14.7" ry="8.5" fill="#eceff4" stroke="#79818c" stroke-width="1" stroke-opacity=".6"/><path d="M141.4 51.2 A18.6 10.7 0 0 0 178.6 51.2 L178.6 38.4 A18.6 10.7 0 0 1 141.4 38.4 Z" fill="url(#rinse-cup-g9)" stroke="#11141a" stroke-width="1" stroke-opacity=".6"/><ellipse cx="160.0" cy="38.4" rx="18.6" ry="10.7" fill="#29313c" stroke="#11141a" stroke-width="1" stroke-opacity=".6"/><path d="M138.4 38.4 A21.6 12.4 0 0 0 181.6 38.4 L181.6 -121.6 A21.6 12.4 0 0 1 138.4 -121.6 Z" fill="url(#rinse-cup-g10)" stroke="#a1a6ae" stroke-width="1" stroke-opacity=".6"/><polygon points="67.2,160.8 172.5,221.6 172.5,184.8 67.2,124.0" fill="#76a4e1" fill-opacity=".5"/><polygon points="252.8,175.2 172.5,221.6 172.5,184.8 252.8,138.4" fill="#5c8ccc" fill-opacity=".55"/><polygon points="67.2,124.0 172.5,184.8 172.5,170.4 67.2,109.6" fill="#cee0f0" fill-opacity=".12"/><polygon points="252.8,138.4 172.5,184.8 172.5,170.4 252.8,124.0" fill="#acc0d4" fill-opacity=".12"/><polyline points="67.2,109.6 172.5,170.4 252.8,124.0 147.5,63.2 67.2,109.6" fill="none" stroke="#dff0ff" stroke-width="1.5" stroke-opacity=".85"/><line x1="67.2" y1="160.8" x2="67.2" y2="109.6" stroke="#dff0ff" stroke-width="1.2" stroke-opacity=".7"/><line x1="172.5" y1="221.6" x2="172.5" y2="170.4" stroke="#dff0ff" stroke-width="1.2" stroke-opacity=".7"/><line x1="252.8" y1="175.2" x2="252.8" y2="124.0" stroke="#dff0ff" stroke-width="1.2" stroke-opacity=".7"/><line x1="67.2" y1="160.8" x2="172.5" y2="221.6" stroke="#dff0ff" stroke-width="1.2" stroke-opacity=".7"/><line x1="172.5" y1="221.6" x2="252.8" y2="175.2" stroke="#dff0ff" stroke-width="1.2" stroke-opacity=".7"/></svg>
