<svg viewBox="0 0 320 240" xmlns="http://www.w3.org/2000/svg" role="img" aria-label="털기 — 컵"><defs><filter id="shake-cup-blur" x="-50%" y="-50%" width="200%" height="200%"><feGaussianBlur stdDeviation="5"/></filter><filter id="shake-cup-soft" x="-50%" y="-50%" width="200%" height="200%"><feGaussianBlur stdDeviation="2"/></filter><linearGradient id="shake-cup-g1" x1="0" y1="0" x2="1" y2="0"><stop offset="0" stop-color="#2d3641"/><stop offset="0.22" stop-color="#37424f"/><stop offset="0.5" stop-color="#2f3844"/><stop offset="0.82" stop-color="#242c36"/><stop offset="1" stop-color="#1f262f"/></linearGradient><radialGradient id="shake-cup-r2" cx="0.45" cy="0.4" r="0.7"><stop offset="0" stop-color="#3b4654"/><stop offset="0.75" stop-color="#2c3541"/><stop offset="1" stop-color="#252d38"/></radialGradient><linearGradient id="shake-cup-g3" x1="0" y1="0" x2="1" y2="0"><stop offset="0" stop-color="#4b6255"/><stop offset="0.22" stop-color="#5c7868"/><stop offset="0.5" stop-color="#4e6659"/><stop offset="0.82" stop-color="#3d5046"/><stop offset="1" stop-color="#33453b"/></linearGradient><linearGradient id="shake-cup-g4" x1="0" y1="0" x2="0" y2="1"><stop offset="0" stop-color="#3b4e44"/><stop offset="0.55" stop-color="#4e6659"/><stop offset="1" stop-color="#5a7666"/></linearGradient><clipPath id="shake-cup-c5"><rect x="-2000" y="-2000" width="4000" height="2134.4"/><ellipse cx="115.7" cy="134.4" rx="51.9" ry="29.6"/></clipPath><linearGradient id="shake-cup-g6" x1="0" y1="0" x2="1" y2="0"><stop offset="0" stop-color="#d8dadd"/><stop offset="0.22" stop-color="#f5f5f6"/><stop offset="0.5" stop-color="#dddfe2"/><stop offset="0.82" stop-color="#c0c4c9"/><stop offset="1" stop-color="#b0b5bc"/></linearGradient><linearGradient id="shake-cup-g7" x1="0" y1="0" x2="1" y2="0"><stop offset="0" stop-color="#cd94a5"/><stop offset="0.22" stop-color="#efb8c7"/><stop offset="0.5" stop-color="#d39aab"/><stop offset="0.82" stop-color="#b2768a"/><stop offset="1" stop-color="#9f6277"/></linearGradient><linearGradient id="shake-cup-g8" x1="0" y1="0" x2="1" y2="0"><stop offset="0" stop-color="#cd94a5"/><stop offset="0.22" stop-color="#efb8c7"/><stop offset="0.5" stop-color="#d39aab"/><stop offset="0.82" stop-color="#b2768a"/><stop offset="1" stop-color="#9f6277"/></linearGradient><linearGradient id="shake-cup-g9" x1="0" y1="0" x2="0" y2="1"><stop offset="0" stop-color="#ae7286"/><stop offset="0.55" stop-color="#d39aab"/><stop offset="1" stop-color="#ecb4c4"/></linearGradient><linearGradient id="shake-cup-g10" x1="0" y1="0" x2="1" y2="0"><stop offset="0" stop-color="#bfc4cb"/><stop offset="0.22" stop-color="#e4e7ec"/><stop offset="0.5" stop-color="#c6cad1"/><stop offset="0.82" stop-color="#a1a7b0"/><stop offset="1" stop-color="#8d949e"/></linearGradient><linearGradient id="shake-cup-g11" x1="0" y1="0" x2="1" y2="0"><stop offset="0" stop-color="#20262f"/><stop offset="0.22" stop-color="#272f39"/><stop offset="0.5" stop-color="#212731"/><stop offset="0.82" stop-color="#191e26"/><stop offset="1" stop-color="#151920"/></linearGradient><linearGradient id="shake-cup-g12" x1="0" y1="0" x2="1" y2="0"><stop offset="0" stop-color="#d8dadd"/><stop offset="0.22" stop-color="#f5f5f6"/><stop offset="0.5" stop-color="#dddfe2"/><stop offset="0.82" stop-color="#c0c4c9"/><stop offset="1" stop-color="#b0b5bc"/></linearGradient><radialGradient id="shake-cup-r13" cx="0.4" cy="0.35" r="0.7"><stop offset="0" stop-color="#ffffff"/><stop offset="0.7" stop-color="#dfe3e8"/><stop offset="1" stop-color="#9aa3ae"/></radialGradient></defs><ellipse cx="160.0" cy="177.6" rx="99.9" ry="57.7" fill="#000" fill-opacity="0.35" filter="url(#shake-cup-blur)"/><path d="M62.0 176.0 A98.0 56.6 0 0 0 258.0 176.0 L258.0 168.0 A98.0 56.6 0 0 1 62.0 168.0 Z" fill="url(#shake-cup-g1)"/><ellipse cx="160.0" cy="168.0" rx="98.0" ry="56.6" fill="url(#shake-cup-r2)" stroke="#4a5666" stroke-width="1"/><ellipse cx="115.7" cy="169.6" rx="54.9" ry="31.7" fill="#000" fill-opacity="0.4" filter="url(#shake-cup-blur)"/><path d="M70.6 169.6 A45.1 26.0 0 0 0 160.7 169.6 L169.5 134.4 A53.9 31.1 0 0 1 61.8 134.4 Z" fill="url(#shake-cup-g3)" stroke="#2a3931" stroke-width="1" stroke-opacity=".6"/><ellipse cx="115.7" cy="134.4" rx="53.9" ry="31.1" fill="#617f6e" stroke="#374a40" stroke-width="1" stroke-opacity=".5"/><ellipse cx="115.7" cy="134.4" rx="50.0" ry="28.8" fill="url(#shake-cup-g4)"/><ellipse cx="115.7" cy="147.4" rx="37.0" ry="21.4" fill="#5d7969" fill-opacity=".8"/><path d="M65.7 134.4 A50.0 28.8 0 0 1 165.6 134.4" fill="none" stroke="#33453b" stroke-width="2.5" stroke-opacity=".45"/><path d="M82.2 157.7 Q79.2 156.0 84.2 171.6" stroke="#fff" stroke-opacity="0.55" stroke-width="3" fill="none" stroke-linecap="round"/><g clip-path="url(#shake-cup-c5)"><ellipse cx="91.7" cy="144.4" rx="4.8" ry="3.4" transform="rotate(0 91.7 144.4)" fill="#6e4521" stroke="#482d15" stroke-width=".6"/><ellipse cx="107.7" cy="148.4" rx="6.0" ry="4.2" transform="rotate(53 107.7 148.4)" fill="#8a5a2b" stroke="#5a3a1c" stroke-width=".6"/><ellipse cx="125.7" cy="146.4" rx="5.4" ry="3.8" transform="rotate(106 125.7 146.4)" fill="#efe6d2" stroke="#9b9688" stroke-width=".6"/><ellipse cx="141.7" cy="143.4" rx="4.2" ry="3.0" transform="rotate(159 141.7 143.4)" fill="#e2b05a" stroke="#93723a" stroke-width=".6"/><ellipse cx="101.7" cy="138.4" rx="4.2" ry="3.0" transform="rotate(32 101.7 138.4)" fill="#c77d36" stroke="#815123" stroke-width=".6"/><ellipse cx="117.7" cy="140.4" rx="4.8" ry="3.4" transform="rotate(85 117.7 140.4)" fill="#b8452c" stroke="#782d1d" stroke-width=".6"/><ellipse cx="133.7" cy="137.4" rx="3.6" ry="2.5" transform="rotate(138 133.7 137.4)" fill="#5f8f3e" stroke="#3e5d28" stroke-width=".6"/><ellipse cx="85.7" cy="136.4" rx="3.6" ry="2.5" transform="rotate(11 85.7 136.4)" fill="#6e4521" stroke="#482d15" stroke-width=".6"/><ellipse cx="121.7" cy="152.4" rx="4.2" ry="3.0" transform="rotate(64 121.7 152.4)" fill="#8a5a2b" stroke="#5a3a1c" stroke-width=".6"/><ellipse cx="113.7" cy="132.4" rx="3.6" ry="2.5" transform="rotate(117 113.7 132.4)" fill="#efe6d2" stroke="#9b9688" stroke-width=".6"/></g><path d="M32.4 126.7 A21.6 12.4 0 0 0 75.5 126.7 L75.5 -113.3 A21.6 12.4 0 0 1 32.4 -113.3 Z" fill="url(#shake-cup-g6)" stroke="#a1a6ae" stroke-width="1" stroke-opacity=".6"/><g transform="translate(-106.1 171.5) rotate(-125 160.0 -44.8)"><polygon points="133.5,75.9 126.9,84.1 126.9,74.5 133.5,66.3" fill="#3d444e" stroke="#3d444e" stroke-width=".6" stroke-linejoin="round"/><polygon points="126.9,84.1 120.1,82.3 120.1,72.7 126.9,74.5" fill="#535c69" stroke="#535c69" stroke-width=".6" stroke-linejoin="round"/><polygon points="126.8,64.5 133.5,66.3 126.9,74.5 120.1,72.7" fill="#707b8b" stroke="#707b8b" stroke-width=".6" stroke-linejoin="round"/><polygon points="132.8,66.4 126.6,74.1 126.6,14.9 132.8,7.2" fill="#68707b" stroke="#68707b" stroke-width=".6" stroke-linejoin="round"/><polygon points="126.6,74.1 120.9,72.6 120.9,13.4 126.6,14.9" fill="#858e9a" stroke="#858e9a" stroke-width=".6" stroke-linejoin="round"/><polygon points="127.1,5.7 132.8,7.2 126.6,14.9 120.9,13.4" fill="#aab4c1" stroke="#aab4c1" stroke-width=".6" stroke-linejoin="round"/><path d="M131.6 112.0 A28.4 16.4 0 0 0 188.4 112.0 L194.5 57.1 A34.5 19.9 0 0 1 125.5 57.1 Z" fill="url(#shake-cup-g7)" stroke="#8d4e65" stroke-width="1" stroke-opacity=".6"/><line x1="188.3" y1="112.0" x2="194.4" y2="59.3" stroke="#884960" stroke-opacity="0.50" stroke-width="1.2"/><line x1="188.1" y1="113.1" x2="194.1" y2="60.7" stroke="#ffffff" stroke-opacity="0.02" stroke-width=".9"/><line x1="187.8" y1="114.3" x2="193.7" y2="62.2" stroke="#884960" stroke-opacity="0.46" stroke-width="1.2"/><line x1="187.3" y1="115.4" x2="193.1" y2="63.5" stroke="#ffffff" stroke-opacity="0.05" stroke-width=".9"/><line x1="186.6" y1="116.5" x2="192.3" y2="64.9" stroke="#884960" stroke-opacity="0.42" stroke-width="1.2"/><line x1="185.9" y1="117.6" x2="191.4" y2="66.2" stroke="#ffffff" stroke-opacity="0.09" stroke-width=".9"/><line x1="184.9" y1="118.7" x2="190.3" y2="67.5" stroke="#884960" stroke-opacity="0.38" stroke-width="1.2"/><line x1="183.9" y1="119.6" x2="189.0" y2="68.7" stroke="#ffffff" stroke-opacity="0.12" stroke-width=".9"/><line x1="182.7" y1="120.6" x2="187.6" y2="69.9" stroke="#884960" stroke-opacity="0.34" stroke-width="1.2"/><line x1="181.5" y1="121.5" x2="186.1" y2="70.9" stroke="#ffffff" stroke-opacity="0.15" stroke-width=".9"/><line x1="180.1" y1="122.4" x2="184.4" y2="72.0" stroke="#884960" stroke-opacity="0.31" stroke-width="1.2"/><line x1="178.6" y1="123.2" x2="182.6" y2="73.0" stroke="#ffffff" stroke-opacity="0.18" stroke-width=".9"/><line x1="177.0" y1="123.9" x2="180.7" y2="73.9" stroke="#884960" stroke-opacity="0.28" stroke-width="1.2"/><line x1="175.4" y1="124.6" x2="178.7" y2="74.7" stroke="#ffffff" stroke-opacity="0.20" stroke-width=".9"/><line x1="173.6" y1="125.2" x2="176.5" y2="75.4" stroke="#884960" stroke-opacity="0.26" stroke-width="1.2"/><line x1="171.8" y1="125.7" x2="174.4" y2="76.0" stroke="#ffffff" stroke-opacity="0.22" stroke-width=".9"/><line x1="169.9" y1="126.2" x2="172.1" y2="76.6" stroke="#884960" stroke-opacity="0.24" stroke-width="1.2"/><line x1="168.0" y1="126.5" x2="169.8" y2="77.0" stroke="#ffffff" stroke-opacity="0.23" stroke-width=".9"/><line x1="166.0" y1="126.8" x2="167.3" y2="77.4" stroke="#884960" stroke-opacity="0.23" stroke-width="1.2"/><line x1="164.1" y1="127.0" x2="165.0" y2="77.6" stroke="#ffffff" stroke-opacity="0.24" stroke-width=".9"/><line x1="162.0" y1="127.2" x2="162.5" y2="77.8" stroke="#884960" stroke-opacity="0.22" stroke-width="1.2"/><line x1="160.0" y1="127.2" x2="160.0" y2="77.8" stroke="#ffffff" stroke-opacity="0.25" stroke-width=".9"/><line x1="158.0" y1="127.2" x2="157.5" y2="77.8" stroke="#884960" stroke-opacity="0.22" stroke-width="1.2"/><line x1="156.0" y1="127.0" x2="155.1" y2="77.6" stroke="#ffffff" stroke-opacity="0.25" stroke-width=".9"/><line x1="154.0" y1="126.8" x2="152.7" y2="77.4" stroke="#884960" stroke-opacity="0.23" stroke-width="1.2"/><line x1="152.0" y1="126.5" x2="150.3" y2="77.0" stroke="#ffffff" stroke-opacity="0.24" stroke-width=".9"/><line x1="150.1" y1="126.2" x2="147.9" y2="76.6" stroke="#884960" stroke-opacity="0.24" stroke-width="1.2"/><line x1="148.2" y1="125.7" x2="145.7" y2="76.0" stroke="#ffffff" stroke-opacity="0.23" stroke-width=".9"/><line x1="146.4" y1="125.2" x2="143.5" y2="75.4" stroke="#884960" stroke-opacity="0.26" stroke-width="1.2"/><line x1="144.7" y1="124.6" x2="141.4" y2="74.7" stroke="#ffffff" stroke-opacity="0.22" stroke-width=".9"/><line x1="143.0" y1="123.9" x2="139.3" y2="73.9" stroke="#884960" stroke-opacity="0.28" stroke-width="1.2"/><line x1="141.4" y1="123.2" x2="137.5" y2="73.0" stroke="#ffffff" stroke-opacity="0.20" stroke-width=".9"/><line x1="139.9" y1="122.4" x2="135.6" y2="72.0" stroke="#884960" stroke-opacity="0.31" stroke-width="1.2"/><line x1="138.6" y1="121.6" x2="134.0" y2="71.0" stroke="#ffffff" stroke-opacity="0.18" stroke-width=".9"/><line x1="137.3" y1="120.6" x2="132.4" y2="69.9" stroke="#884960" stroke-opacity="0.34" stroke-width="1.2"/><line x1="136.1" y1="119.7" x2="131.0" y2="68.7" stroke="#ffffff" stroke-opacity="0.15" stroke-width=".9"/><line x1="135.1" y1="118.7" x2="129.7" y2="67.5" stroke="#884960" stroke-opacity="0.38" stroke-width="1.2"/><line x1="134.2" y1="117.6" x2="128.6" y2="66.2" stroke="#ffffff" stroke-opacity="0.12" stroke-width=".9"/><line x1="133.4" y1="116.5" x2="127.7" y2="64.9" stroke="#884960" stroke-opacity="0.42" stroke-width="1.2"/><line x1="132.7" y1="115.4" x2="126.9" y2="63.6" stroke="#ffffff" stroke-opacity="0.09" stroke-width=".9"/><line x1="132.2" y1="114.3" x2="126.3" y2="62.2" stroke="#884960" stroke-opacity="0.46" stroke-width="1.2"/><line x1="131.9" y1="113.2" x2="125.9" y2="60.8" stroke="#ffffff" stroke-opacity="0.05" stroke-width=".9"/><line x1="131.7" y1="112.0" x2="125.6" y2="59.3" stroke="#884960" stroke-opacity="0.50" stroke-width="1.2"/><line x1="131.6" y1="110.8" x2="125.5" y2="57.9" stroke="#ffffff" stroke-opacity="0.02" stroke-width=".9"/><path d="M123.3 57.1 A36.7 21.2 0 0 0 196.7 57.1 L199.2 33.6 A39.2 22.6 0 0 1 120.8 33.6 Z" fill="url(#shake-cup-g8)" stroke="#8d4e65" stroke-width="1" stroke-opacity=".6"/><path d="M123.3 57.1 A36.7 21.2 0 0 0 196.7 57.1" fill="none" stroke="#905268" stroke-width="1.2" stroke-opacity=".6"/><ellipse cx="160.0" cy="33.6" rx="40.4" ry="23.3" fill="#f9c3d1" stroke="#a76a7f" stroke-width="1" stroke-opacity=".5"/><ellipse cx="160.0" cy="33.6" rx="35.8" ry="20.6" fill="url(#shake-cup-g9)"/><path d="M124.2 33.6 A35.8 20.6 0 0 1 195.8 33.6" fill="none" stroke="#9f6277" stroke-width="2.5" stroke-opacity=".45"/><path d="M135.7 50.6 Q132.7 76.8 137.7 114.0" stroke="#fff" stroke-opacity="0.3" stroke-width="3" fill="none" stroke-linecap="round"/><polygon points="199.9,93.7 193.2,101.9 193.2,92.3 199.9,84.1" fill="#3d444e" stroke="#3d444e" stroke-width=".6" stroke-linejoin="round"/><polygon points="193.2,101.9 186.5,100.1 186.5,90.5 193.2,92.3" fill="#535c69" stroke="#535c69" stroke-width=".6" stroke-linejoin="round"/><polygon points="193.1,82.3 199.9,84.1 193.2,92.3 186.5,90.5" fill="#707b8b" stroke="#707b8b" stroke-width=".6" stroke-linejoin="round"/><polygon points="199.1,84.2 192.9,91.9 192.9,32.7 199.1,25.0" fill="#68707b" stroke="#68707b" stroke-width=".6" stroke-linejoin="round"/><polygon points="192.9,91.9 187.2,90.4 187.2,31.2 192.9,32.7" fill="#858e9a" stroke="#858e9a" stroke-width=".6" stroke-linejoin="round"/><polygon points="193.4,23.5 199.1,25.0 192.9,32.7 187.2,31.2" fill="#aab4c1" stroke="#aab4c1" stroke-width=".6" stroke-linejoin="round"/><polygon points="198.3,29.6 194.1,34.7 194.1,30.7 198.3,25.6" fill="#3d444e" stroke="#3d444e" stroke-width=".6" stroke-linejoin="round"/><polygon points="194.1,34.7 121.7,15.2 121.7,11.2 194.1,30.7" fill="#535c69" stroke="#535c69" stroke-width=".6" stroke-linejoin="round"/><polygon points="125.9,6.1 198.3,25.6 194.1,30.7 121.7,11.2" fill="#707b8b" stroke="#707b8b" stroke-width=".6" stroke-linejoin="round"/><polygon points="186.8,18.7 177.6,30.0 177.6,7.6 186.8,-3.7" fill="#3d444e" stroke="#3d444e" stroke-width=".6" stroke-linejoin="round"/><polygon points="177.6,30.0 133.2,18.1 133.2,-4.3 177.6,7.6" fill="#535c69" stroke="#535c69" stroke-width=".6" stroke-linejoin="round"/><polygon points="142.4,-15.6 186.8,-3.7 177.6,7.6 133.2,-4.3" fill="#707b8b" stroke="#707b8b" stroke-width=".6" stroke-linejoin="round"/><polygon points="182.8,-2.8 176.2,5.4 176.2,3.0 182.8,-5.2" fill="#989ea8" stroke="#989ea8" stroke-width=".6" stroke-linejoin="round"/><polygon points="176.2,5.4 137.2,-5.2 137.2,-7.6 176.2,3.0" fill="#bfc4cb" stroke="#bfc4cb" stroke-width=".6" stroke-linejoin="round"/><polygon points="143.8,-15.8 182.8,-5.2 176.2,3.0 137.2,-7.6" fill="#f1f4f8" stroke="#f1f4f8" stroke-width=".6" stroke-linejoin="round"/><path d="M145.3 -6.4 A14.7 8.5 0 0 0 174.7 -6.4 L174.7 -12.8 A14.7 8.5 0 0 1 145.3 -12.8 Z" fill="url(#shake-cup-g10)" stroke="#79818c" stroke-width="1" stroke-opacity=".6"/><ellipse cx="160.0" cy="-12.8" rx="14.7" ry="8.5" fill="#eceff4" stroke="#79818c" stroke-width="1" stroke-opacity=".6"/><path d="M141.4 -12.8 A18.6 10.7 0 0 0 178.6 -12.8 L178.6 -25.6 A18.6 10.7 0 0 1 141.4 -25.6 Z" fill="url(#shake-cup-g11)" stroke="#11141a" stroke-width="1" stroke-opacity=".6"/><ellipse cx="160.0" cy="-25.6" rx="18.6" ry="10.7" fill="#29313c" stroke="#11141a" stroke-width="1" stroke-opacity=".6"/><path d="M138.4 -25.6 A21.6 12.4 0 0 0 181.6 -25.6 L181.6 -44.8 A21.6 12.4 0 0 1 138.4 -44.8 Z" fill="url(#shake-cup-g12)" stroke="#a1a6ae" stroke-width="1" stroke-opacity=".6"/><ellipse cx="160.0" cy="-44.8" rx="21.6" ry="12.4" fill="#fbfbfc" stroke="#a1a6ae" stroke-width="1" stroke-opacity=".6"/></g><circle cx="53.9" cy="126.7" r="21" fill="url(#shake-cup-r13)" stroke="#2a323d" stroke-width="3"/><circle cx="53.9" cy="126.7" r="9" fill="#2a323d"/><ellipse cx="128.8" cy="114.4" rx="3.1" ry="2.2" transform="rotate(0 128.8 114.4)" fill="#6e4521" stroke="#482d15" stroke-width=".6"/><ellipse cx="133.8" cy="115.4" rx="4.2" ry="3.0" transform="rotate(53 133.8 115.4)" fill="#8a5a2b" stroke="#5a3a1c" stroke-width=".6"/><ellipse cx="128.1" cy="116.6" rx="4.2" ry="3.0" transform="rotate(106 128.1 116.6)" fill="#efe6d2" stroke="#9b9688" stroke-width=".6"/><ellipse cx="128.8" cy="117.6" rx="5.3" ry="3.7" transform="rotate(159 128.8 117.6)" fill="#e2b05a" stroke="#93723a" stroke-width=".6"/><ellipse cx="134.5" cy="118.6" rx="3.1" ry="2.2" transform="rotate(32 134.5 118.6)" fill="#c77d36" stroke="#815123" stroke-width=".6"/><ellipse cx="129.9" cy="119.6" rx="5.3" ry="3.7" transform="rotate(85 129.9 119.6)" fill="#b8452c" stroke="#782d1d" stroke-width=".6"/><ellipse cx="131.3" cy="120.6" rx="3.1" ry="2.2" transform="rotate(138 131.3 120.6)" fill="#5f8f3e" stroke="#3e5d28" stroke-width=".6"/><ellipse cx="123.2" cy="123.4" rx="3.1" ry="2.2" transform="rotate(11 123.2 123.4)" fill="#6e4521" stroke="#482d15" stroke-width=".6"/><ellipse cx="130.3" cy="120.4" rx="4.2" ry="3.0" transform="rotate(64 130.3 120.4)" fill="#8a5a2b" stroke="#5a3a1c" stroke-width=".6"/><ellipse cx="132.4" cy="121.4" rx="5.3" ry="3.7" transform="rotate(117 132.4 121.4)" fill="#efe6d2" stroke="#9b9688" stroke-width=".6"/><ellipse cx="125.5" cy="124.0" rx="4.2" ry="3.0" transform="rotate(170 125.5 124.0)" fill="#e2b05a" stroke="#93723a" stroke-width=".6"/><ellipse cx="128.3" cy="125.0" rx="5.3" ry="3.7" transform="rotate(43 128.3 125.0)" fill="#c77d36" stroke="#815123" stroke-width=".6"/><ellipse cx="117.8" cy="129.4" rx="5.3" ry="3.7" transform="rotate(96 117.8 129.4)" fill="#b8452c" stroke="#782d1d" stroke-width=".6"/><ellipse cx="126.3" cy="130.4" rx="3.1" ry="2.2" transform="rotate(149 126.3 130.4)" fill="#5f8f3e" stroke="#3e5d28" stroke-width=".6"/><ellipse cx="129.8" cy="131.4" rx="4.2" ry="3.0" transform="rotate(22 129.8 131.4)" fill="#6e4521" stroke="#482d15" stroke-width=".6"/><ellipse cx="120.6" cy="135.6" rx="3.1" ry="2.2" transform="rotate(75 120.6 135.6)" fill="#8a5a2b" stroke="#5a3a1c" stroke-width=".6"/><ellipse cx="124.8" cy="136.6" rx="4.2" ry="3.0" transform="rotate(128 124.8 136.6)" fill="#efe6d2" stroke="#9b9688" stroke-width=".6"/><ellipse cx="117.0" cy="142.6" rx="4.2" ry="3.0" transform="rotate(1 117.0 142.6)" fill="#e2b05a" stroke="#93723a" stroke-width=".6"/><ellipse cx="121.9" cy="139.6" rx="5.3" ry="3.7" transform="rotate(54 121.9 139.6)" fill="#c77d36" stroke="#815123" stroke-width=".6"/><ellipse cx="126.8" cy="140.6" rx="3.1" ry="2.2" transform="rotate(107 126.8 140.6)" fill="#b8452c" stroke="#782d1d" stroke-width=".6"/><ellipse cx="115.2" cy="146.4" rx="5.3" ry="3.7" transform="rotate(160 115.2 146.4)" fill="#5f8f3e" stroke="#3e5d28" stroke-width=".6"/><ellipse cx="125.8" cy="147.4" rx="3.1" ry="2.2" transform="rotate(33 125.8 147.4)" fill="#6e4521" stroke="#482d15" stroke-width=".6"/><ellipse cx="110.7" cy="155.0" rx="3.1" ry="2.2" transform="rotate(86 110.7 155.0)" fill="#8a5a2b" stroke="#5a3a1c" stroke-width=".6"/><ellipse cx="117.0" cy="156.0" rx="4.2" ry="3.0" transform="rotate(139 117.0 156.0)" fill="#efe6d2" stroke="#9b9688" stroke-width=".6"/><ellipse cx="128.3" cy="157.0" rx="5.3" ry="3.7" transform="rotate(12 128.3 157.0)" fill="#e2b05a" stroke="#93723a" stroke-width=".6"/><ellipse cx="109.3" cy="164.4" rx="4.2" ry="3.0" transform="rotate(65 109.3 164.4)" fill="#c77d36" stroke="#815123" stroke-width=".6"/><ellipse cx="121.3" cy="165.4" rx="5.3" ry="3.7" transform="rotate(118 121.3 165.4)" fill="#b8452c" stroke="#782d1d" stroke-width=".6"/><path d="M186.3 -3.1 A72.0 72.0 0 0 1 221.2 46.8" fill="none" stroke="#6b9bff" stroke-opacity="1" stroke-width="3.5" stroke-linecap="round"/><path d="M195.3 -18.7 A90.0 90.0 0 0 1 238.9 43.7" fill="none" stroke="#6b9bff" stroke-opacity="0.5" stroke-width="3.5" stroke-linecap="round"/></svg>
