<svg viewBox="0 0 320 240" xmlns="http://www.w3.org/2000/svg" role="img" aria-label="무게 — 그릇"><defs><filter id="weigh-bowl-blur" x="-50%" y="-50%" width="200%" height="200%"><feGaussianBlur stdDeviation="5"/></filter><filter id="weigh-bowl-soft" x="-50%" y="-50%" width="200%" height="200%"><feGaussianBlur stdDeviation="2"/></filter><linearGradient id="weigh-bowl-g1" x1="0" y1="0" x2="1" y2="0"><stop offset="0" stop-color="#2d3641"/><stop offset="0.22" stop-color="#37424f"/><stop offset="0.5" stop-color="#2f3844"/><stop offset="0.82" stop-color="#242c36"/><stop offset="1" stop-color="#1f262f"/></linearGradient><radialGradient id="weigh-bowl-r2" cx="0.45" cy="0.4" r="0.7"><stop offset="0" stop-color="#3b4654"/><stop offset="0.75" stop-color="#2c3541"/><stop offset="1" stop-color="#252d38"/></radialGradient><linearGradient id="weigh-bowl-g3" x1="0" y1="0" x2="1" y2="0"><stop offset="0" stop-color="#dcdad6"/><stop offset="0.22" stop-color="#f6f5f4"/><stop offset="0.5" stop-color="#e1dfdc"/><stop offset="0.82" stop-color="#c7c3be"/><stop offset="1" stop-color="#b9b5ad"/></linearGradient><linearGradient id="weigh-bowl-g4" x1="0" y1="0" x2="0" y2="1"><stop offset="0" stop-color="#c4c1bb"/><stop offset="0.55" stop-color="#e1dfdc"/><stop offset="1" stop-color="#f3f3f1"/></linearGradient><linearGradient id="weigh-bowl-g5" x1="0" y1="0" x2="1" y2="0"><stop offset="0" stop-color="#bfc4cb"/><stop offset="0.22" stop-color="#e4e7ec"/><stop offset="0.5" stop-color="#c6cad1"/><stop offset="0.82" stop-color="#a1a7b0"/><stop offset="1" stop-color="#8d949e"/></linearGradient><linearGradient id="weigh-bowl-g6" x1="0" y1="0" x2="1" y2="0"><stop offset="0" stop-color="#20262f"/><stop offset="0.22" stop-color="#272f39"/><stop offset="0.5" stop-color="#212731"/><stop offset="0.82" stop-color="#191e26"/><stop offset="1" stop-color="#151920"/></linearGradient><linearGradient id="weigh-bowl-g7" x1="0" y1="0" x2="1" y2="0"><stop offset="0" stop-color="#d8dadd"/><stop offset="0.22" stop-color="#f5f5f6"/><stop offset="0.5" stop-color="#dddfe2"/><stop offset="0.82" stop-color="#c0c4c9"/><stop offset="1" stop-color="#b0b5bc"/></linearGradient><linearGradient id="weigh-bowl-g8" x1="0" y1="0" x2="1" y2="1"><stop offset="0" stop-color="#e9ecf0"/><stop offset="1" stop-color="#a6acb4"/></linearGradient></defs><ellipse cx="160.0" cy="177.6" rx="99.9" ry="57.7" fill="#000" fill-opacity="0.35" filter="url(#weigh-bowl-blur)"/><path d="M62.0 176.0 A98.0 56.6 0 0 0 258.0 176.0 L258.0 168.0 A98.0 56.6 0 0 1 62.0 168.0 Z" fill="url(#weigh-bowl-g1)"/><ellipse cx="160.0" cy="168.0" rx="98.0" ry="56.6" fill="url(#weigh-bowl-r2)" stroke="#4a5666" stroke-width="1"/><ellipse cx="160.0" cy="168.0" rx="41.2" ry="23.8" fill="#000" fill-opacity="0.35" filter="url(#weigh-bowl-blur)"/><path d="M128.6 140.8 A31.4 18.1 0 0 0 191.4 140.8 L215.8 107.2 A55.8 32.2 0 0 1 104.2 107.2 Z" fill="url(#weigh-bowl-g3)" stroke="#aba69d" stroke-width="1" stroke-opacity=".6"/><ellipse cx="160.0" cy="107.2" rx="55.8" ry="32.2" fill="#fefefe" stroke="#bfbbb4" stroke-width="1" stroke-opacity=".5"/><ellipse cx="160.0" cy="107.2" rx="52.4" ry="30.3" fill="url(#weigh-bowl-g4)"/><ellipse cx="160.0" cy="120.8" rx="25.1" ry="14.5" fill="#f7f6f5" fill-opacity=".8"/><path d="M107.6 107.2 A52.4 30.3 0 0 1 212.4 107.2" fill="none" stroke="#b9b5ad" stroke-width="2.5" stroke-opacity=".45"/><path d="M125.4 131.4 Q122.4 128.0 127.4 142.8" stroke="#fff" stroke-opacity=".55" stroke-width="3" fill="none" stroke-linecap="round"/><polygon points="209.6,115.9 203.4,123.6 203.4,102.8 209.6,95.1" fill="#68707b" stroke="#68707b" stroke-width=".6" stroke-linejoin="round"/><polygon points="203.4,123.6 197.7,122.0 197.7,101.2 203.4,102.8" fill="#858e9a" stroke="#858e9a" stroke-width=".6" stroke-linejoin="round"/><polygon points="204.0,93.6 209.6,95.1 203.4,102.8 197.7,101.2" fill="#aab4c1" stroke="#aab4c1" stroke-width=".6" stroke-linejoin="round"/><polygon points="221.0,136.2 214.4,144.4 214.4,134.8 221.0,126.6" fill="#3d444e" stroke="#3d444e" stroke-width=".6" stroke-linejoin="round"/><polygon points="214.4,144.4 207.7,142.6 207.7,133.0 214.4,134.8" fill="#535c69" stroke="#535c69" stroke-width=".6" stroke-linejoin="round"/><polygon points="214.3,124.8 221.0,126.6 214.4,134.8 207.7,133.0" fill="#707b8b" stroke="#707b8b" stroke-width=".6" stroke-linejoin="round"/><polygon points="220.3,126.8 214.1,134.4 214.1,105.6 220.3,98.0" fill="#68707b" stroke="#68707b" stroke-width=".6" stroke-linejoin="round"/><polygon points="214.1,134.4 208.4,132.9 208.4,104.1 214.1,105.6" fill="#858e9a" stroke="#858e9a" stroke-width=".6" stroke-linejoin="round"/><polygon points="214.6,96.4 220.3,98.0 214.1,105.6 208.4,104.1" fill="#aab4c1" stroke="#aab4c1" stroke-width=".6" stroke-linejoin="round"/><polygon points="230.4,97.7 221.3,109.0 221.3,86.6 230.4,75.3" fill="#3d444e" stroke="#3d444e" stroke-width=".6" stroke-linejoin="round"/><polygon points="221.3,109.0 187.6,99.9 187.6,77.5 221.3,86.6" fill="#535c69" stroke="#535c69" stroke-width=".6" stroke-linejoin="round"/><polygon points="196.7,66.2 230.4,75.3 221.3,86.6 187.6,77.5" fill="#707b8b" stroke="#707b8b" stroke-width=".6" stroke-linejoin="round"/><polygon points="226.5,76.1 219.9,84.3 219.9,81.9 226.5,73.7" fill="#989ea8" stroke="#989ea8" stroke-width=".6" stroke-linejoin="round"/><polygon points="219.9,84.3 191.5,76.7 191.5,74.3 219.9,81.9" fill="#bfc4cb" stroke="#bfc4cb" stroke-width=".6" stroke-linejoin="round"/><polygon points="198.1,66.1 226.5,73.7 219.9,81.9 191.5,74.3" fill="#f1f4f8" stroke="#f1f4f8" stroke-width=".6" stroke-linejoin="round"/><path d="M194.3 74.0 A14.7 8.5 0 0 0 223.7 74.0 L223.7 67.6 A14.7 8.5 0 0 1 194.3 67.6 Z" fill="url(#weigh-bowl-g5)" stroke="#79818c" stroke-width="1" stroke-opacity=".6"/><ellipse cx="209.0" cy="67.6" rx="14.7" ry="8.5" fill="#eceff4" stroke="#79818c" stroke-width="1" stroke-opacity=".6"/><path d="M190.4 67.6 A18.6 10.7 0 0 0 227.6 67.6 L227.6 54.8 A18.6 10.7 0 0 1 190.4 54.8 Z" fill="url(#weigh-bowl-g6)" stroke="#11141a" stroke-width="1" stroke-opacity=".6"/><ellipse cx="209.0" cy="54.8" rx="18.6" ry="10.7" fill="#29313c" stroke="#11141a" stroke-width="1" stroke-opacity=".6"/><path d="M187.5 54.8 A21.6 12.4 0 0 0 230.6 54.8 L230.6 -105.2 A21.6 12.4 0 0 1 187.5 -105.2 Z" fill="url(#weigh-bowl-g7)" stroke="#a1a6ae" stroke-width="1" stroke-opacity=".6"/><circle cx="262" cy="120" r="8" fill="none" stroke="#c7ccd2" stroke-width="4"/><path d="M246 128 H278 L286 162 Q287 167 282 167 H242 Q237 167 238 162 Z" fill="url(#weigh-bowl-g8)" stroke="#848c96" stroke-width="1"/><text x="262" y="156" text-anchor="middle" font-family="IBM Plex Sans KR, system-ui, sans-serif" font-size="18" font-weight="700" fill="#1b2330">g</text><path d="M221.8 116.0 L221.8 164.0 M218.0 157.0 L221.8 164.0 L225.7 157.0" fill="none" stroke="#0b0f15" stroke-opacity=".55" stroke-width="7" stroke-linecap="round" stroke-linejoin="round"/><path d="M221.8 116.0 L221.8 164.0 M218.0 157.0 L221.8 164.0 L225.7 157.0" fill="none" stroke="#6b9bff" stroke-width="4" stroke-linecap="round" stroke-linejoin="round"/></svg>
