<svg viewBox="0 0 320 240" xmlns="http://www.w3.org/2000/svg" role="img" aria-label="닦기 — 컵"><defs><filter id="wipe-cup-blur" x="-50%" y="-50%" width="200%" height="200%"><feGaussianBlur stdDeviation="5"/></filter><filter id="wipe-cup-soft" x="-50%" y="-50%" width="200%" height="200%"><feGaussianBlur stdDeviation="2"/></filter><linearGradient id="wipe-cup-g1" x1="0" y1="0" x2="1" y2="0"><stop offset="0" stop-color="#2d3641"/><stop offset="0.22" stop-color="#37424f"/><stop offset="0.5" stop-color="#2f3844"/><stop offset="0.82" stop-color="#242c36"/><stop offset="1" stop-color="#1f262f"/></linearGradient><radialGradient id="wipe-cup-r2" cx="0.45" cy="0.4" r="0.7"><stop offset="0" stop-color="#3b4654"/><stop offset="0.75" stop-color="#2c3541"/><stop offset="1" stop-color="#252d38"/></radialGradient><linearGradient id="wipe-cup-g3" x1="0" y1="0" x2="0" y2="1"><stop offset="0" stop-color="#a67b2b"/><stop offset="1" stop-color="#cfa64e"/></linearGradient><linearGradient id="wipe-cup-g4" x1="0" y1="0" x2="1" y2="0"><stop offset="0" stop-color="#cd94a5"/><stop offset="0.22" stop-color="#efb8c7"/><stop offset="0.5" stop-color="#d39aab"/><stop offset="0.82" stop-color="#b2768a"/><stop offset="1" stop-color="#9f6277"/></linearGradient><linearGradient id="wipe-cup-g5" x1="0" y1="0" x2="1" y2="0"><stop offset="0" stop-color="#cd94a5"/><stop offset="0.22" stop-color="#efb8c7"/><stop offset="0.5" stop-color="#d39aab"/><stop offset="0.82" stop-color="#b2768a"/><stop offset="1" stop-color="#9f6277"/></linearGradient><linearGradient id="wipe-cup-g6" x1="0" y1="0" x2="0" y2="1"><stop offset="0" stop-color="#ae7286"/><stop offset="0.55" stop-color="#d39aab"/><stop offset="1" stop-color="#ecb4c4"/></linearGradient><clipPath id="wipe-cup-c7"><rect x="-2000" y="-2000" width="4000" height="2070.4"/><ellipse cx="160.0" cy="70.4" rx="37.2" ry="21.1"/></clipPath><linearGradient id="wipe-cup-g8" x1="0" y1="0" x2="1" y2="0"><stop offset="0" stop-color="#c38a3e"/><stop offset="0.22" stop-color="#e2a44e"/><stop offset="0.5" stop-color="#c98f41"/><stop offset="0.82" stop-color="#a97531"/><stop offset="1" stop-color="#986728"/></linearGradient><linearGradient id="wipe-cup-g9" x1="0" y1="0" x2="1" y2="0"><stop offset="0" stop-color="#bfc4cb"/><stop offset="0.22" stop-color="#e4e7ec"/><stop offset="0.5" stop-color="#c6cad1"/><stop offset="0.82" stop-color="#a1a7b0"/><stop offset="1" stop-color="#8d949e"/></linearGradient><linearGradient id="wipe-cup-g10" x1="0" y1="0" x2="1" y2="0"><stop offset="0" stop-color="#5b82ce"/><stop offset="0.22" stop-color="#719cf2"/><stop offset="0.5" stop-color="#5f87d4"/><stop offset="0.82" stop-color="#496db0"/><stop offset="1" stop-color="#3e5f9c"/></linearGradient><linearGradient id="wipe-cup-g11" x1="0" y1="0" x2="1" y2="0"><stop offset="0" stop-color="#bfc4cb"/><stop offset="0.22" stop-color="#e4e7ec"/><stop offset="0.5" stop-color="#c6cad1"/><stop offset="0.82" stop-color="#a1a7b0"/><stop offset="1" stop-color="#8d949e"/></linearGradient><linearGradient id="wipe-cup-g12" x1="0" y1="0" x2="1" y2="0"><stop offset="0" stop-color="#20262f"/><stop offset="0.22" stop-color="#272f39"/><stop offset="0.5" stop-color="#212731"/><stop offset="0.82" stop-color="#191e26"/><stop offset="1" stop-color="#151920"/></linearGradient><linearGradient id="wipe-cup-g13" x1="0" y1="0" x2="1" y2="0"><stop offset="0" stop-color="#d8dadd"/><stop offset="0.22" stop-color="#f5f5f6"/><stop offset="0.5" stop-color="#dddfe2"/><stop offset="0.82" stop-color="#c0c4c9"/><stop offset="1" stop-color="#b0b5bc"/></linearGradient></defs><ellipse cx="160.0" cy="177.6" rx="99.9" ry="57.7" fill="#000" fill-opacity="0.35" filter="url(#wipe-cup-blur)"/><path d="M62.0 176.0 A98.0 56.6 0 0 0 258.0 176.0 L258.0 168.0 A98.0 56.6 0 0 1 62.0 168.0 Z" fill="url(#wipe-cup-g1)"/><ellipse cx="160.0" cy="168.0" rx="98.0" ry="56.6" fill="url(#wipe-cup-r2)" stroke="#4a5666" stroke-width="1"/><polygon points="257.0,168.0 160.0,224.0 160.0,201.6 257.0,145.6" fill="#6e7885" stroke="#6e7885" stroke-width=".6" stroke-linejoin="round"/><polygon points="160.0,224.0 63.0,168.0 63.0,145.6 160.0,201.6" fill="#939daa" stroke="#939daa" stroke-width=".6" stroke-linejoin="round"/><polygon points="160.0,89.6 257.0,145.6 160.0,201.6 63.0,145.6" fill="#b7c2d0" stroke="#b7c2d0" stroke-width=".6" stroke-linejoin="round"/><polygon points="251.5,145.6 160.0,198.4 160.0,190.4 251.5,137.6" fill="#c09641" stroke="#c09641" stroke-width=".6" stroke-linejoin="round"/><polygon points="160.0,198.4 68.5,145.6 68.5,137.6 160.0,190.4" fill="#dfb85c" stroke="#dfb85c" stroke-width=".6" stroke-linejoin="round"/><polygon points="160.0,84.8 251.5,137.6 160.0,190.4 68.5,137.6" fill="#ffd978" stroke="#ffd978" stroke-width=".6" stroke-linejoin="round"/><ellipse cx="160.0" cy="137.6" rx="41.2" ry="23.8" fill="url(#wipe-cup-g3)"/><ellipse cx="193.3" cy="156.8" rx="1.8" ry="1.1" fill="#c69d46"/><ellipse cx="108.1" cy="136.3" rx="1.8" ry="1.1" fill="#c69d46"/><ellipse cx="203.5" cy="116.5" rx="1.8" ry="1.1" fill="#c69d46"/><ellipse cx="151.9" cy="172.9" rx="1.8" ry="1.1" fill="#c69d46"/><ellipse cx="130.8" cy="113.5" rx="1.8" ry="1.1" fill="#c69d46"/><ellipse cx="214.5" cy="144.6" rx="1.8" ry="1.1" fill="#c69d46"/><ellipse cx="107.4" cy="155.1" rx="1.8" ry="1.1" fill="#c69d46"/><ellipse cx="175.1" cy="110.1" rx="1.8" ry="1.1" fill="#c69d46"/><ellipse cx="183.1" cy="166.3" rx="1.8" ry="1.1" fill="#c69d46"/><ellipse cx="104.8" cy="124.4" rx="1.8" ry="1.1" fill="#c69d46"/><ellipse cx="206.1" cy="128.0" rx="1.8" ry="1.1" fill="#c69d46"/><ellipse cx="135.0" cy="165.2" rx="1.8" ry="1.1" fill="#c69d46"/><ellipse cx="144.9" cy="104.8" rx="1.8" ry="1.1" fill="#c69d46"/><ellipse cx="200.4" cy="152.5" rx="1.8" ry="1.1" fill="#c69d46"/><ellipse cx="107.9" cy="142.8" rx="1.8" ry="1.1" fill="#c69d46"/><ellipse cx="195.3" cy="111.2" rx="1.8" ry="1.1" fill="#c69d46"/><ellipse cx="164.0" cy="164.7" rx="1.8" ry="1.1" fill="#c69d46"/><ellipse cx="121.8" cy="117.3" rx="1.8" ry="1.1" fill="#c69d46"/><ellipse cx="216.8" cy="137.7" rx="1.8" ry="1.1" fill="#c69d46"/><ellipse cx="164.6" cy="108.3" rx="1.8" ry="1.1" fill="#c69d46"/><ellipse cx="193.9" cy="163.2" rx="1.8" ry="1.1" fill="#c69d46"/><path d="M131.6 148.8 A28.4 16.4 0 0 0 188.4 148.8 L194.5 93.9 A34.5 19.9 0 0 1 125.5 93.9 Z" fill="url(#wipe-cup-g4)" stroke="#8d4e65" stroke-width="1" stroke-opacity=".6"/><line x1="188.3" y1="148.8" x2="194.4" y2="96.1" stroke="#884960" stroke-opacity="0.50" stroke-width="1.2"/><line x1="188.1" y1="149.9" x2="194.1" y2="97.5" stroke="#ffffff" stroke-opacity="0.02" stroke-width=".9"/><line x1="187.8" y1="151.1" x2="193.7" y2="99.0" stroke="#884960" stroke-opacity="0.46" stroke-width="1.2"/><line x1="187.3" y1="152.2" x2="193.1" y2="100.3" stroke="#ffffff" stroke-opacity="0.05" stroke-width=".9"/><line x1="186.6" y1="153.3" x2="192.3" y2="101.7" stroke="#884960" stroke-opacity="0.42" stroke-width="1.2"/><line x1="185.9" y1="154.4" x2="191.4" y2="103.0" stroke="#ffffff" stroke-opacity="0.09" stroke-width=".9"/><line x1="184.9" y1="155.5" x2="190.3" y2="104.3" stroke="#884960" stroke-opacity="0.38" stroke-width="1.2"/><line x1="183.9" y1="156.4" x2="189.0" y2="105.5" stroke="#ffffff" stroke-opacity="0.12" stroke-width=".9"/><line x1="182.7" y1="157.4" x2="187.6" y2="106.7" stroke="#884960" stroke-opacity="0.34" stroke-width="1.2"/><line x1="181.5" y1="158.3" x2="186.1" y2="107.7" stroke="#ffffff" stroke-opacity="0.15" stroke-width=".9"/><line x1="180.1" y1="159.2" x2="184.4" y2="108.8" stroke="#884960" stroke-opacity="0.31" stroke-width="1.2"/><line x1="178.6" y1="160.0" x2="182.6" y2="109.8" stroke="#ffffff" stroke-opacity="0.18" stroke-width=".9"/><line x1="177.0" y1="160.7" x2="180.7" y2="110.7" stroke="#884960" stroke-opacity="0.28" stroke-width="1.2"/><line x1="175.4" y1="161.4" x2="178.7" y2="111.5" stroke="#ffffff" stroke-opacity="0.20" stroke-width=".9"/><line x1="173.6" y1="162.0" x2="176.5" y2="112.2" stroke="#884960" stroke-opacity="0.26" stroke-width="1.2"/><line x1="171.8" y1="162.5" x2="174.4" y2="112.8" stroke="#ffffff" stroke-opacity="0.22" stroke-width=".9"/><line x1="169.9" y1="163.0" x2="172.1" y2="113.4" stroke="#884960" stroke-opacity="0.24" stroke-width="1.2"/><line x1="168.0" y1="163.3" x2="169.8" y2="113.8" stroke="#ffffff" stroke-opacity="0.23" stroke-width=".9"/><line x1="166.0" y1="163.6" x2="167.3" y2="114.2" stroke="#884960" stroke-opacity="0.23" stroke-width="1.2"/><line x1="164.1" y1="163.8" x2="165.0" y2="114.4" stroke="#ffffff" stroke-opacity="0.24" stroke-width=".9"/><line x1="162.0" y1="164.0" x2="162.5" y2="114.6" stroke="#884960" stroke-opacity="0.22" stroke-width="1.2"/><line x1="160.0" y1="164.0" x2="160.0" y2="114.6" stroke="#ffffff" stroke-opacity="0.25" stroke-width=".9"/><line x1="158.0" y1="164.0" x2="157.5" y2="114.6" stroke="#884960" stroke-opacity="0.22" stroke-width="1.2"/><line x1="156.0" y1="163.8" x2="155.1" y2="114.4" stroke="#ffffff" stroke-opacity="0.25" stroke-width=".9"/><line x1="154.0" y1="163.6" x2="152.7" y2="114.2" stroke="#884960" stroke-opacity="0.23" stroke-width="1.2"/><line x1="152.0" y1="163.3" x2="150.3" y2="113.8" stroke="#ffffff" stroke-opacity="0.24" stroke-width=".9"/><line x1="150.1" y1="163.0" x2="147.9" y2="113.4" stroke="#884960" stroke-opacity="0.24" stroke-width="1.2"/><line x1="148.2" y1="162.5" x2="145.7" y2="112.8" stroke="#ffffff" stroke-opacity="0.23" stroke-width=".9"/><line x1="146.4" y1="162.0" x2="143.5" y2="112.2" stroke="#884960" stroke-opacity="0.26" stroke-width="1.2"/><line x1="144.7" y1="161.4" x2="141.4" y2="111.5" stroke="#ffffff" stroke-opacity="0.22" stroke-width=".9"/><line x1="143.0" y1="160.7" x2="139.3" y2="110.7" stroke="#884960" stroke-opacity="0.28" stroke-width="1.2"/><line x1="141.4" y1="160.0" x2="137.5" y2="109.8" stroke="#ffffff" stroke-opacity="0.20" stroke-width=".9"/><line x1="139.9" y1="159.2" x2="135.6" y2="108.8" stroke="#884960" stroke-opacity="0.31" stroke-width="1.2"/><line x1="138.6" y1="158.4" x2="134.0" y2="107.8" stroke="#ffffff" stroke-opacity="0.18" stroke-width=".9"/><line x1="137.3" y1="157.4" x2="132.4" y2="106.7" stroke="#884960" stroke-opacity="0.34" stroke-width="1.2"/><line x1="136.1" y1="156.5" x2="131.0" y2="105.5" stroke="#ffffff" stroke-opacity="0.15" stroke-width=".9"/><line x1="135.1" y1="155.5" x2="129.7" y2="104.3" stroke="#884960" stroke-opacity="0.38" stroke-width="1.2"/><line x1="134.2" y1="154.4" x2="128.6" y2="103.0" stroke="#ffffff" stroke-opacity="0.12" stroke-width=".9"/><line x1="133.4" y1="153.3" x2="127.7" y2="101.7" stroke="#884960" stroke-opacity="0.42" stroke-width="1.2"/><line x1="132.7" y1="152.2" x2="126.9" y2="100.4" stroke="#ffffff" stroke-opacity="0.09" stroke-width=".9"/><line x1="132.2" y1="151.1" x2="126.3" y2="99.0" stroke="#884960" stroke-opacity="0.46" stroke-width="1.2"/><line x1="131.9" y1="150.0" x2="125.9" y2="97.6" stroke="#ffffff" stroke-opacity="0.05" stroke-width=".9"/><line x1="131.7" y1="148.8" x2="125.6" y2="96.1" stroke="#884960" stroke-opacity="0.50" stroke-width="1.2"/><line x1="131.6" y1="147.6" x2="125.5" y2="94.7" stroke="#ffffff" stroke-opacity="0.02" stroke-width=".9"/><path d="M123.3 93.9 A36.7 21.2 0 0 0 196.7 93.9 L199.2 70.4 A39.2 22.6 0 0 1 120.8 70.4 Z" fill="url(#wipe-cup-g5)" stroke="#8d4e65" stroke-width="1" stroke-opacity=".6"/><path d="M123.3 93.9 A36.7 21.2 0 0 0 196.7 93.9" fill="none" stroke="#905268" stroke-width="1.2" stroke-opacity=".6"/><ellipse cx="160.0" cy="70.4" rx="40.4" ry="23.3" fill="#f9c3d1" stroke="#a76a7f" stroke-width="1" stroke-opacity=".5"/><ellipse cx="160.0" cy="70.4" rx="35.8" ry="20.6" fill="url(#wipe-cup-g6)"/><path d="M124.2 70.4 A35.8 20.6 0 0 1 195.8 70.4" fill="none" stroke="#9f6277" stroke-width="2.5" stroke-opacity=".45"/><path d="M135.7 87.4 Q132.7 113.6 137.7 150.8" stroke="#fff" stroke-opacity="0.3" stroke-width="3" fill="none" stroke-linecap="round"/><g clip-path="url(#wipe-cup-c7)"><path d="M147.3 131.2 A12.7 7.4 0 0 0 172.7 131.2 L173.7 107.2 A13.7 7.9 0 0 1 146.3 107.2 Z" fill="url(#wipe-cup-g8)" stroke="#86581f" stroke-width="1" stroke-opacity=".6"/><ellipse cx="160.0" cy="107.2" rx="13.7" ry="7.9" fill="#eaaa52" stroke="#86581f" stroke-width="1" stroke-opacity=".6"/><line x1="150.1" y1="134.2" x2="149.3" y2="110.2" stroke="#906125" stroke-width=".8" stroke-opacity=".7"/><line x1="152.9" y1="134.2" x2="152.4" y2="110.2" stroke="#906125" stroke-width=".8" stroke-opacity=".7"/><line x1="155.8" y1="134.2" x2="155.4" y2="110.2" stroke="#906125" stroke-width=".8" stroke-opacity=".7"/><line x1="158.6" y1="134.2" x2="158.5" y2="110.2" stroke="#906125" stroke-width=".8" stroke-opacity=".7"/><line x1="161.4" y1="134.2" x2="161.5" y2="110.2" stroke="#906125" stroke-width=".8" stroke-opacity=".7"/><line x1="164.2" y1="134.2" x2="164.6" y2="110.2" stroke="#906125" stroke-width=".8" stroke-opacity=".7"/><line x1="167.1" y1="134.2" x2="167.6" y2="110.2" stroke="#906125" stroke-width=".8" stroke-opacity=".7"/><line x1="169.9" y1="134.2" x2="170.7" y2="110.2" stroke="#906125" stroke-width=".8" stroke-opacity=".7"/><path d="M152.2 107.2 A7.8 4.5 0 0 0 167.8 107.2 L167.8 100.8 A7.8 4.5 0 0 1 152.2 100.8 Z" fill="url(#wipe-cup-g9)" stroke="#79818c" stroke-width="1" stroke-opacity=".6"/><ellipse cx="160.0" cy="100.8" rx="7.8" ry="4.5" fill="#eceff4" stroke="#79818c" stroke-width="1" stroke-opacity=".6"/><path d="M154.6 100.8 A5.4 3.1 0 0 0 165.4 100.8 L165.4 54.4 A5.4 3.1 0 0 1 154.6 54.4 Z" fill="url(#wipe-cup-g10)" stroke="#325188" stroke-width="1" stroke-opacity=".6"/><ellipse cx="160.0" cy="54.4" rx="5.4" ry="3.1" fill="#76a1fa" stroke="#325188" stroke-width="1" stroke-opacity=".6"/></g><polygon points="158.7,71.5 152.1,79.7 152.1,70.1 158.7,61.9" fill="#3d444e" stroke="#3d444e" stroke-width=".6" stroke-linejoin="round"/><polygon points="152.1,79.7 145.3,77.8 145.3,68.2 152.1,70.1" fill="#535c69" stroke="#535c69" stroke-width=".6" stroke-linejoin="round"/><polygon points="151.9,60.0 158.7,61.9 152.1,70.1 145.3,68.2" fill="#707b8b" stroke="#707b8b" stroke-width=".6" stroke-linejoin="round"/><polygon points="158.0,62.0 151.7,69.7 151.7,44.1 158.0,36.4" fill="#68707b" stroke="#68707b" stroke-width=".6" stroke-linejoin="round"/><polygon points="151.7,69.7 146.1,68.1 146.1,42.5 151.7,44.1" fill="#858e9a" stroke="#858e9a" stroke-width=".6" stroke-linejoin="round"/><polygon points="152.3,34.8 158.0,36.4 151.7,44.1 146.1,42.5" fill="#aab4c1" stroke="#aab4c1" stroke-width=".6" stroke-linejoin="round"/><polygon points="174.7,75.8 168.1,84.0 168.1,74.4 174.7,66.2" fill="#3d444e" stroke="#3d444e" stroke-width=".6" stroke-linejoin="round"/><polygon points="168.1,84.0 161.3,82.1 161.3,72.5 168.1,74.4" fill="#535c69" stroke="#535c69" stroke-width=".6" stroke-linejoin="round"/><polygon points="167.9,64.3 174.7,66.2 168.1,74.4 161.3,72.5" fill="#707b8b" stroke="#707b8b" stroke-width=".6" stroke-linejoin="round"/><polygon points="173.9,66.3 167.7,74.0 167.7,48.4 173.9,40.7" fill="#68707b" stroke="#68707b" stroke-width=".6" stroke-linejoin="round"/><polygon points="167.7,74.0 162.0,72.4 162.0,46.8 167.7,48.4" fill="#858e9a" stroke="#858e9a" stroke-width=".6" stroke-linejoin="round"/><polygon points="168.3,39.1 173.9,40.7 167.7,48.4 162.0,46.8" fill="#aab4c1" stroke="#aab4c1" stroke-width=".6" stroke-linejoin="round"/><polygon points="184.1,40.4 175.0,51.7 175.0,29.3 184.1,18.0" fill="#3d444e" stroke="#3d444e" stroke-width=".6" stroke-linejoin="round"/><polygon points="175.0,51.7 135.9,41.2 135.9,18.8 175.0,29.3" fill="#535c69" stroke="#535c69" stroke-width=".6" stroke-linejoin="round"/><polygon points="145.0,7.5 184.1,18.0 175.0,29.3 135.9,18.8" fill="#707b8b" stroke="#707b8b" stroke-width=".6" stroke-linejoin="round"/><polygon points="180.2,18.8 173.6,27.0 173.6,24.6 180.2,16.4" fill="#989ea8" stroke="#989ea8" stroke-width=".6" stroke-linejoin="round"/><polygon points="173.6,27.0 139.8,18.0 139.8,15.6 173.6,24.6" fill="#bfc4cb" stroke="#bfc4cb" stroke-width=".6" stroke-linejoin="round"/><polygon points="146.4,7.4 180.2,16.4 173.6,24.6 139.8,15.6" fill="#f1f4f8" stroke="#f1f4f8" stroke-width=".6" stroke-linejoin="round"/><path d="M145.3 16.0 A14.7 8.5 0 0 0 174.7 16.0 L174.7 9.6 A14.7 8.5 0 0 1 145.3 9.6 Z" fill="url(#wipe-cup-g11)" stroke="#79818c" stroke-width="1" stroke-opacity=".6"/><ellipse cx="160.0" cy="9.6" rx="14.7" ry="8.5" fill="#eceff4" stroke="#79818c" stroke-width="1" stroke-opacity=".6"/><path d="M141.4 9.6 A18.6 10.7 0 0 0 178.6 9.6 L178.6 -3.2 A18.6 10.7 0 0 1 141.4 -3.2 Z" fill="url(#wipe-cup-g12)" stroke="#11141a" stroke-width="1" stroke-opacity=".6"/><ellipse cx="160.0" cy="-3.2" rx="18.6" ry="10.7" fill="#29313c" stroke="#11141a" stroke-width="1" stroke-opacity=".6"/><path d="M138.4 -3.2 A21.6 12.4 0 0 0 181.6 -3.2 L181.6 -163.2 A21.6 12.4 0 0 1 138.4 -163.2 Z" fill="url(#wipe-cup-g13)" stroke="#a1a6ae" stroke-width="1" stroke-opacity=".6"/><path d="M221.2 80.4 L221.2 40.4 M224.5 46.5 L221.2 40.4 L217.8 46.5" fill="none" stroke="#0b0f15" stroke-opacity=".55" stroke-width="6.5" stroke-linecap="round" stroke-linejoin="round"/><path d="M221.2 80.4 L221.2 40.4 M224.5 46.5 L221.2 40.4 L217.8 46.5" fill="none" stroke="#6b9bff" stroke-width="3.5" stroke-linecap="round" stroke-linejoin="round"/><path d="M233.2 40.4 L233.2 80.4 M229.8 74.3 L233.2 80.4 L236.5 74.3" fill="none" stroke="#0b0f15" stroke-opacity=".55" stroke-width="6.5" stroke-linecap="round" stroke-linejoin="round"/><path d="M233.2 40.4 L233.2 80.4 M229.8 74.3 L233.2 80.4 L236.5 74.3" fill="none" stroke="#6b9bff" stroke-width="3.5" stroke-linecap="round" stroke-linejoin="round"/></svg>
