<svg viewBox="0 0 320 240" xmlns="http://www.w3.org/2000/svg" role="img" aria-label="닦기 — 그릇"><defs><filter id="wipe-bowl-blur" x="-50%" y="-50%" width="200%" height="200%"><feGaussianBlur stdDeviation="5"/></filter><filter id="wipe-bowl-soft" x="-50%" y="-50%" width="200%" height="200%"><feGaussianBlur stdDeviation="2"/></filter><linearGradient id="wipe-bowl-g1" x1="0" y1="0" x2="1" y2="0"><stop offset="0" stop-color="#2d3641"/><stop offset="0.22" stop-color="#37424f"/><stop offset="0.5" stop-color="#2f3844"/><stop offset="0.82" stop-color="#242c36"/><stop offset="1" stop-color="#1f262f"/></linearGradient><radialGradient id="wipe-bowl-r2" cx="0.45" cy="0.4" r="0.7"><stop offset="0" stop-color="#3b4654"/><stop offset="0.75" stop-color="#2c3541"/><stop offset="1" stop-color="#252d38"/></radialGradient><linearGradient id="wipe-bowl-g3" x1="0" y1="0" x2="0" y2="1"><stop offset="0" stop-color="#a67b2b"/><stop offset="1" stop-color="#cfa64e"/></linearGradient><linearGradient id="wipe-bowl-g4" x1="0" y1="0" x2="1" y2="0"><stop offset="0" stop-color="#cd94a5"/><stop offset="0.22" stop-color="#efb8c7"/><stop offset="0.5" stop-color="#d39aab"/><stop offset="0.82" stop-color="#b2768a"/><stop offset="1" stop-color="#9f6277"/></linearGradient><linearGradient id="wipe-bowl-g5" x1="0" y1="0" x2="1" y2="0"><stop offset="0" stop-color="#cd94a5"/><stop offset="0.22" stop-color="#efb8c7"/><stop offset="0.5" stop-color="#d39aab"/><stop offset="0.82" stop-color="#b2768a"/><stop offset="1" stop-color="#9f6277"/></linearGradient><linearGradient id="wipe-bowl-g6" x1="0" y1="0" x2="1" y2="0"><stop offset="0" stop-color="#cd94a5"/><stop offset="0.22" stop-color="#efb8c7"/><stop offset="0.5" stop-color="#d39aab"/><stop offset="0.82" stop-color="#b2768a"/><stop offset="1" stop-color="#9f6277"/></linearGradient><linearGradient id="wipe-bowl-g7" x1="0" y1="0" x2="0" y2="1"><stop offset="0" stop-color="#ae7286"/><stop offset="0.55" stop-color="#d39aab"/><stop offset="1" stop-color="#ecb4c4"/></linearGradient><clipPath id="wipe-bowl-c8"><rect x="-2000" y="-2000" width="4000" height="2113.6"/><ellipse cx="160.0" cy="113.6" rx="51.9" ry="29.6"/></clipPath><linearGradient id="wipe-bowl-g9" x1="0" y1="0" x2="1" y2="0"><stop offset="0" stop-color="#5b82ce"/><stop offset="0.22" stop-color="#719cf2"/><stop offset="0.5" stop-color="#5f87d4"/><stop offset="0.82" stop-color="#496db0"/><stop offset="1" stop-color="#3e5f9c"/></linearGradient><linearGradient id="wipe-bowl-g10" x1="0" y1="0" x2="1" y2="0"><stop offset="0" stop-color="#bfc4cb"/><stop offset="0.22" stop-color="#e4e7ec"/><stop offset="0.5" stop-color="#c6cad1"/><stop offset="0.82" stop-color="#a1a7b0"/><stop offset="1" stop-color="#8d949e"/></linearGradient><linearGradient id="wipe-bowl-g11" x1="0" y1="0" x2="1" y2="0"><stop offset="0" stop-color="#20262f"/><stop offset="0.22" stop-color="#272f39"/><stop offset="0.5" stop-color="#212731"/><stop offset="0.82" stop-color="#191e26"/><stop offset="1" stop-color="#151920"/></linearGradient><linearGradient id="wipe-bowl-g12" x1="0" y1="0" x2="1" y2="0"><stop offset="0" stop-color="#d8dadd"/><stop offset="0.22" stop-color="#f5f5f6"/><stop offset="0.5" stop-color="#dddfe2"/><stop offset="0.82" stop-color="#c0c4c9"/><stop offset="1" stop-color="#b0b5bc"/></linearGradient></defs><ellipse cx="160.0" cy="177.6" rx="99.9" ry="57.7" fill="#000" fill-opacity="0.35" filter="url(#wipe-bowl-blur)"/><path d="M62.0 176.0 A98.0 56.6 0 0 0 258.0 176.0 L258.0 168.0 A98.0 56.6 0 0 1 62.0 168.0 Z" fill="url(#wipe-bowl-g1)"/><ellipse cx="160.0" cy="168.0" rx="98.0" ry="56.6" fill="url(#wipe-bowl-r2)" stroke="#4a5666" stroke-width="1"/><polygon points="257.0,168.0 160.0,224.0 160.0,201.6 257.0,145.6" fill="#6e7885" stroke="#6e7885" stroke-width=".6" stroke-linejoin="round"/><polygon points="160.0,224.0 63.0,168.0 63.0,145.6 160.0,201.6" fill="#939daa" stroke="#939daa" stroke-width=".6" stroke-linejoin="round"/><polygon points="160.0,89.6 257.0,145.6 160.0,201.6 63.0,145.6" fill="#b7c2d0" stroke="#b7c2d0" stroke-width=".6" stroke-linejoin="round"/><polygon points="251.5,145.6 160.0,198.4 160.0,190.4 251.5,137.6" fill="#c09641" stroke="#c09641" stroke-width=".6" stroke-linejoin="round"/><polygon points="160.0,198.4 68.5,145.6 68.5,137.6 160.0,190.4" fill="#dfb85c" stroke="#dfb85c" stroke-width=".6" stroke-linejoin="round"/><polygon points="160.0,84.8 251.5,137.6 160.0,190.4 68.5,137.6" fill="#ffd978" stroke="#ffd978" stroke-width=".6" stroke-linejoin="round"/><ellipse cx="160.0" cy="137.6" rx="41.2" ry="23.8" fill="url(#wipe-bowl-g3)"/><ellipse cx="193.3" cy="156.8" rx="1.8" ry="1.1" fill="#c69d46"/><ellipse cx="108.1" cy="136.3" rx="1.8" ry="1.1" fill="#c69d46"/><ellipse cx="203.5" cy="116.5" rx="1.8" ry="1.1" fill="#c69d46"/><ellipse cx="151.9" cy="172.9" rx="1.8" ry="1.1" fill="#c69d46"/><ellipse cx="130.8" cy="113.5" rx="1.8" ry="1.1" fill="#c69d46"/><ellipse cx="214.5" cy="144.6" rx="1.8" ry="1.1" fill="#c69d46"/><ellipse cx="107.4" cy="155.1" rx="1.8" ry="1.1" fill="#c69d46"/><ellipse cx="175.1" cy="110.1" rx="1.8" ry="1.1" fill="#c69d46"/><ellipse cx="183.1" cy="166.3" rx="1.8" ry="1.1" fill="#c69d46"/><ellipse cx="104.8" cy="124.4" rx="1.8" ry="1.1" fill="#c69d46"/><ellipse cx="206.1" cy="128.0" rx="1.8" ry="1.1" fill="#c69d46"/><ellipse cx="135.0" cy="165.2" rx="1.8" ry="1.1" fill="#c69d46"/><ellipse cx="144.9" cy="104.8" rx="1.8" ry="1.1" fill="#c69d46"/><ellipse cx="200.4" cy="152.5" rx="1.8" ry="1.1" fill="#c69d46"/><ellipse cx="107.9" cy="142.8" rx="1.8" ry="1.1" fill="#c69d46"/><ellipse cx="195.3" cy="111.2" rx="1.8" ry="1.1" fill="#c69d46"/><ellipse cx="164.0" cy="164.7" rx="1.8" ry="1.1" fill="#c69d46"/><ellipse cx="121.8" cy="117.3" rx="1.8" ry="1.1" fill="#c69d46"/><ellipse cx="216.8" cy="137.7" rx="1.8" ry="1.1" fill="#c69d46"/><ellipse cx="164.6" cy="108.3" rx="1.8" ry="1.1" fill="#c69d46"/><ellipse cx="193.9" cy="163.2" rx="1.8" ry="1.1" fill="#c69d46"/><path d="M132.6 148.8 A27.4 15.8 0 0 0 187.4 148.8 L189.4 145.6 A29.4 17.0 0 0 1 130.6 145.6 Z" fill="url(#wipe-bowl-g4)" stroke="#8d4e65" stroke-width="1" stroke-opacity=".6"/><path d="M116.9 145.6 A43.1 24.9 0 0 0 203.1 145.6 L213.9 116.0 A53.9 31.1 0 0 1 106.1 116.0 Z" fill="url(#wipe-bowl-g5)" stroke="#8d4e65" stroke-width="1" stroke-opacity=".6"/><polygon points="200.1,82.5 194.7,89.1 194.7,86.7 200.1,80.1" fill="#a96d81" stroke="#a96d81" stroke-width=".6" stroke-linejoin="round"/><polygon points="194.7,89.1 173.4,83.4 173.4,81.0 194.7,86.7" fill="#cd93a5" stroke="#cd93a5" stroke-width=".6" stroke-linejoin="round"/><polygon points="200.1,80.1 194.7,86.7 173.4,81.0 178.7,74.3" fill="#fbc5d3" stroke="#fbc5d3" stroke-width=".6" stroke-linejoin="round"/><path d="M99.3 116.0 A60.7 35.1 0 0 0 220.7 116.0 L220.7 113.6 A60.7 35.1 0 0 1 99.3 113.6 Z" fill="url(#wipe-bowl-g6)" stroke="#8d4e65" stroke-width="1" stroke-opacity=".6"/><ellipse cx="160.0" cy="113.6" rx="60.7" ry="35.1" fill="#f5becd" stroke="#8d4e65" stroke-width="1" stroke-opacity=".6"/><polygon points="146.6,148.6 141.3,155.3 141.3,152.9 146.6,146.2" fill="#a96d81" stroke="#a96d81" stroke-width=".6" stroke-linejoin="round"/><polygon points="141.3,155.3 119.9,149.5 119.9,147.1 141.3,152.9" fill="#cd93a5" stroke="#cd93a5" stroke-width=".6" stroke-linejoin="round"/><polygon points="146.6,146.2 141.3,152.9 119.9,147.1 125.3,140.5" fill="#fbc5d3" stroke="#fbc5d3" stroke-width=".6" stroke-linejoin="round"/><ellipse cx="160.0" cy="113.6" rx="60.7" ry="35.1" fill="#f5becd"/><ellipse cx="160.0" cy="113.6" rx="53.9" ry="31.1" fill="#f9c3d1" stroke="#ae7286" stroke-width="1" stroke-opacity=".45"/><ellipse cx="160.0" cy="113.6" rx="50.5" ry="29.1" fill="url(#wipe-bowl-g7)"/><ellipse cx="160.0" cy="126.7" rx="35.7" ry="20.6" fill="#f0b9c8" fill-opacity=".8"/><path d="M109.5 113.6 A50.5 29.1 0 0 1 210.5 113.6" fill="none" stroke="#9f6277" stroke-width="2.5" stroke-opacity=".45"/><path d="M126.6 139.3 Q123.6 134.8 128.6 147.6" stroke="#fff" stroke-opacity="0.3" stroke-width="3" fill="none" stroke-linecap="round"/><g clip-path="url(#wipe-bowl-c8)"><polygon points="180.4,132.0 161.3,147.8 161.3,142.2 180.4,126.4" fill="#367e51" stroke="#367e51" stroke-width=".6" stroke-linejoin="round"/><polygon points="161.3,147.8 134.0,136.8 134.0,131.2 161.3,142.2" fill="#489e68" stroke="#489e68" stroke-width=".6" stroke-linejoin="round"/><polygon points="153.1,115.4 180.4,126.4 161.3,142.2 134.0,131.2" fill="#5cc281" stroke="#5cc281" stroke-width=".6" stroke-linejoin="round"/><polygon points="180.4,126.4 161.3,142.2 161.3,130.2 180.4,114.4" fill="#bd933f" stroke="#bd933f" stroke-width=".6" stroke-linejoin="round"/><polygon points="161.3,142.2 134.0,131.2 134.0,119.2 161.3,130.2" fill="#dcb45a" stroke="#dcb45a" stroke-width=".6" stroke-linejoin="round"/><polygon points="153.1,103.4 180.4,114.4 161.3,130.2 134.0,119.2" fill="#ffd978" stroke="#ffd978" stroke-width=".6" stroke-linejoin="round"/><path d="M151.8 116.8 A5.4 3.1 0 0 0 162.6 116.8 L162.6 70.4 A5.4 3.1 0 0 1 151.8 70.4 Z" fill="url(#wipe-bowl-g9)" stroke="#325188" stroke-width="1" stroke-opacity=".6"/><ellipse cx="157.2" cy="70.4" rx="5.4" ry="3.1" fill="#76a1fa" stroke="#325188" stroke-width="1" stroke-opacity=".6"/></g><polygon points="155.9,87.5 149.3,95.7 149.3,86.1 155.9,77.9" fill="#3d444e" stroke="#3d444e" stroke-width=".6" stroke-linejoin="round"/><polygon points="149.3,95.7 142.5,93.8 142.5,84.2 149.3,86.1" fill="#535c69" stroke="#535c69" stroke-width=".6" stroke-linejoin="round"/><polygon points="149.2,76.0 155.9,77.9 149.3,86.1 142.5,84.2" fill="#707b8b" stroke="#707b8b" stroke-width=".6" stroke-linejoin="round"/><polygon points="155.2,78.0 149.0,85.7 149.0,60.1 155.2,52.4" fill="#68707b" stroke="#68707b" stroke-width=".6" stroke-linejoin="round"/><polygon points="149.0,85.7 143.3,84.1 143.3,58.5 149.0,60.1" fill="#858e9a" stroke="#858e9a" stroke-width=".6" stroke-linejoin="round"/><polygon points="149.5,50.8 155.2,52.4 149.0,60.1 143.3,58.5" fill="#aab4c1" stroke="#aab4c1" stroke-width=".6" stroke-linejoin="round"/><polygon points="171.9,91.8 165.3,100.0 165.3,90.4 171.9,82.2" fill="#3d444e" stroke="#3d444e" stroke-width=".6" stroke-linejoin="round"/><polygon points="165.3,100.0 158.5,98.1 158.5,88.5 165.3,90.4" fill="#535c69" stroke="#535c69" stroke-width=".6" stroke-linejoin="round"/><polygon points="165.2,80.3 171.9,82.2 165.3,90.4 158.5,88.5" fill="#707b8b" stroke="#707b8b" stroke-width=".6" stroke-linejoin="round"/><polygon points="171.2,82.3 165.0,90.0 165.0,64.4 171.2,56.7" fill="#68707b" stroke="#68707b" stroke-width=".6" stroke-linejoin="round"/><polygon points="165.0,90.0 159.3,88.4 159.3,62.8 165.0,64.4" fill="#858e9a" stroke="#858e9a" stroke-width=".6" stroke-linejoin="round"/><polygon points="165.5,55.1 171.2,56.7 165.0,64.4 159.3,62.8" fill="#aab4c1" stroke="#aab4c1" stroke-width=".6" stroke-linejoin="round"/><polygon points="181.3,56.4 172.2,67.7 172.2,45.3 181.3,34.0" fill="#3d444e" stroke="#3d444e" stroke-width=".6" stroke-linejoin="round"/><polygon points="172.2,67.7 133.1,57.2 133.1,34.8 172.2,45.3" fill="#535c69" stroke="#535c69" stroke-width=".6" stroke-linejoin="round"/><polygon points="142.2,23.5 181.3,34.0 172.2,45.3 133.1,34.8" fill="#707b8b" stroke="#707b8b" stroke-width=".6" stroke-linejoin="round"/><polygon points="177.4,34.8 170.8,43.0 170.8,40.6 177.4,32.4" fill="#989ea8" stroke="#989ea8" stroke-width=".6" stroke-linejoin="round"/><polygon points="170.8,43.0 137.0,34.0 137.0,31.6 170.8,40.6" fill="#bfc4cb" stroke="#bfc4cb" stroke-width=".6" stroke-linejoin="round"/><polygon points="143.7,23.4 177.4,32.4 170.8,40.6 137.0,31.6" fill="#f1f4f8" stroke="#f1f4f8" stroke-width=".6" stroke-linejoin="round"/><path d="M142.5 32.0 A14.7 8.5 0 0 0 171.9 32.0 L171.9 25.6 A14.7 8.5 0 0 1 142.5 25.6 Z" fill="url(#wipe-bowl-g10)" stroke="#79818c" stroke-width="1" stroke-opacity=".6"/><ellipse cx="157.2" cy="25.6" rx="14.7" ry="8.5" fill="#eceff4" stroke="#79818c" stroke-width="1" stroke-opacity=".6"/><path d="M138.6 25.6 A18.6 10.7 0 0 0 175.8 25.6 L175.8 12.8 A18.6 10.7 0 0 1 138.6 12.8 Z" fill="url(#wipe-bowl-g11)" stroke="#11141a" stroke-width="1" stroke-opacity=".6"/><ellipse cx="157.2" cy="12.8" rx="18.6" ry="10.7" fill="#29313c" stroke="#11141a" stroke-width="1" stroke-opacity=".6"/><path d="M135.7 12.8 A21.6 12.4 0 0 0 178.8 12.8 L178.8 -147.2 A21.6 12.4 0 0 1 135.7 -147.2 Z" fill="url(#wipe-bowl-g12)" stroke="#a1a6ae" stroke-width="1" stroke-opacity=".6"/><path d="M140.7 98.3 L147.9 96.7 L155.6 95.9 L163.4 95.9 L171.1 96.6 L178.4 98.0 L185.1 100.1 L190.9 102.8 L195.6 106.1 L199.2 109.7 L201.3 113.6 L202.0 117.6 L201.3 121.6 L199.2 125.5 L195.6 129.1 L190.9 132.4 L185.1 135.1 L178.4 137.2 L171.1 138.6 L163.4 139.3 L155.6 139.3 L147.9 138.5 L140.7 136.9 L134.1 134.8 L128.4 132.0 L123.8 128.7 L120.5 125.0 M127.1 127.3 L120.5 125.0 L122.2 131.8" fill="none" stroke="#0b0f15" stroke-opacity=".55" stroke-width="6.5" stroke-linecap="round" stroke-linejoin="round"/><path d="M140.7 98.3 L147.9 96.7 L155.6 95.9 L163.4 95.9 L171.1 96.6 L178.4 98.0 L185.1 100.1 L190.9 102.8 L195.6 106.1 L199.2 109.7 L201.3 113.6 L202.0 117.6 L201.3 121.6 L199.2 125.5 L195.6 129.1 L190.9 132.4 L185.1 135.1 L178.4 137.2 L171.1 138.6 L163.4 139.3 L155.6 139.3 L147.9 138.5 L140.7 136.9 L134.1 134.8 L128.4 132.0 L123.8 128.7 L120.5 125.0 M127.1 127.3 L120.5 125.0 L122.2 131.8" fill="none" stroke="#6b9bff" stroke-width="3.5" stroke-linecap="round" stroke-linejoin="round"/></svg>
