<svg viewBox="0 0 96 96" xmlns="http://www.w3.org/2000/svg" role="img" aria-label="사이클 타임"><defs><linearGradient id="ic-timer-a" x1="0" y1="0" x2="1" y2="1"><stop offset="0" stop-color="#f1f4f8"/><stop offset="1" stop-color="#7d8898"/></linearGradient><radialGradient id="ic-timer-b" cx=".4" cy=".35" r=".7"><stop offset="0" stop-color="#2c3541"/><stop offset="1" stop-color="#11161d"/></radialGradient><filter id="ic-timer-f"><feGaussianBlur stdDeviation="3"/></filter></defs><ellipse cx="50" cy="88" rx="26" ry="5" fill="#000" fill-opacity=".45" filter="url(#ic-timer-f)"/><rect x="42" y="6" width="12" height="10" rx="3" fill="url(#ic-timer-a)"/><rect x="70" y="16" width="9" height="8" rx="2" transform="rotate(40 74 20)" fill="url(#ic-timer-a)"/><circle cx="48" cy="52" r="33" fill="url(#ic-timer-a)"/><circle cx="48" cy="52" r="27" fill="url(#ic-timer-b)"/><path d="M48 52 L48 30 A22 22 0 0 1 67.1 41 Z" fill="#6b9bff" fill-opacity=".85"/><line x1="48.0" y1="29.0" x2="48.0" y2="26.0" stroke="#93a0b3" stroke-width="2"/><line x1="59.5" y1="32.1" x2="61.0" y2="29.5" stroke="#93a0b3" stroke-width="2"/><line x1="67.9" y1="40.5" x2="70.5" y2="39.0" stroke="#93a0b3" stroke-width="2"/><line x1="71.0" y1="52.0" x2="74.0" y2="52.0" stroke="#93a0b3" stroke-width="2"/><line x1="67.9" y1="63.5" x2="70.5" y2="65.0" stroke="#93a0b3" stroke-width="2"/><line x1="59.5" y1="71.9" x2="61.0" y2="74.5" stroke="#93a0b3" stroke-width="2"/><line x1="48.0" y1="75.0" x2="48.0" y2="78.0" stroke="#93a0b3" stroke-width="2"/><line x1="36.5" y1="71.9" x2="35.0" y2="74.5" stroke="#93a0b3" stroke-width="2"/><line x1="28.1" y1="63.5" x2="25.5" y2="65.0" stroke="#93a0b3" stroke-width="2"/><line x1="25.0" y1="52.0" x2="22.0" y2="52.0" stroke="#93a0b3" stroke-width="2"/><line x1="28.1" y1="40.5" x2="25.5" y2="39.0" stroke="#93a0b3" stroke-width="2"/><line x1="36.5" y1="32.1" x2="35.0" y2="29.5" stroke="#93a0b3" stroke-width="2"/><line x1="48" y1="52" x2="61" y2="38" stroke="#fff" stroke-width="3" stroke-linecap="round"/><circle cx="48" cy="52" r="3.5" fill="#fff"/></svg>
